<mxfile host="Electron" modified="2023-05-23T14:56:16.290Z" agent="5.0 (Windows NT 10.0; Win64; x64) AppleWebKit/537.36 (KHTML, like Gecko) draw.io/19.0.2 Chrome/102.0.5005.63 Electron/19.0.3 Safari/537.36" etag="Gx3igTwx_aiMB5PbhyId" compressed="false" version="19.0.2" type="device">
  <diagram id="nNk9Rbr8bsMw7TYfAZ3T" name="Page-1">
    <mxGraphModel dx="3160" dy="2171" grid="1" gridSize="10" guides="1" tooltips="1" connect="1" arrows="1" fold="1" page="1" pageScale="1" pageWidth="850" pageHeight="1100" math="0" shadow="0">
      <root>
        <object tooltip="" id="0">
          <ag_global_attributes>
            <ag_global_attribute name="Resources" value="" iconName="hammer" min="0" max="5" />
            <ag_global_attribute name="Knowledge" value="" iconName="lightbulb" min="0" max="5" />
            <ag_global_attribute name="Location" value="" iconName="map_pin_ellipse" min="0" max="1" />
            <ag_global_attribute name="Impact" value="" iconName="flame" min="0" max="5" />
          </ag_global_attributes>
          <ag_attributes />
          <ag_computed_attributes />
          <ag_aggregation_functions>
            <ag_aggregation_function name="default" id="6b1d22791hih8" default="activity_w;link" fn="function (collection) { &#xa;    var result = null; &#xa;    if (collection.childAttributes.length == 1) { &#xa;        result = collection.childAttributes[0].attributes;&#xa;        result._marking = collection.childAttributes[0].id;&#xa;    } else { &#xa;        var candidates = []; &#xa;        var worstValue = 0; &#xa;        collection.childAttributes.forEach(function(child) { &#xa;            var value = parseInt(child.computedAttribute); &#xa;            if (value &gt; worstValue) { &#xa;                worstValue = value; &#xa;                candidates = []; &#xa;                candidates.push(child); &#xa;            } else if (value == worstValue) { &#xa;                candidates.push(child); &#xa;            } &#xa;        }); &#xa;        var tiebreaker = function(candidates, name, max) { &#xa;            var min_value = max; &#xa;            candidates.forEach(function(node) { &#xa;                min_value = Math.min(min_value, node.attributes[name]); &#xa;            }); &#xa;            result = []; &#xa;            candidates.forEach(function(node) { &#xa;                if (node.attributes[name] == min_value) { &#xa;                    result.push(node); &#xa;                } &#xa;            }); &#xa;            return result; &#xa;        }; &#xa;        if (candidates.length &gt; 1) { &#xa;            candidates = tiebreaker(candidates, &quot;Resources&quot;, collection.globalAttributes[&quot;Resources&quot;].max); &#xa;            if (candidates.length &gt; 1) { &#xa;                candidates = tiebreaker(candidates, &quot;Knowledge&quot;, collection.globalAttributes[&quot;Knowledge&quot;].max); &#xa;            } &#xa;        } &#xa;        result = candidates[0].attributes;&#xa;        result._marking = candidates[0].id;&#xa;    } &#xa;    return result; &#xa;}" />
            <ag_aggregation_function name="AND" id="gf0d4f199018" default="and" fn="function (collection) { &#xa;    var result = {}; &#xa;    var ids = [];&#xa;    collection.childAttributes.forEach(function(child) { &#xa;    for (var attribute in child.attributes) { &#xa;            if (attribute in result) { &#xa;                result[attribute] += parseInt(child.attributes[attribute]); &#xa;            } else { &#xa;                result[attribute] = parseInt(child.attributes[attribute]); &#xa;            } &#xa;        }&#xa;        ids.push(child.id);&#xa;    }); &#xa;    for (var attribute in result) { &#xa;        if (attribute in collection.globalAttributes) { &#xa;            result[attribute] = Math.min(collection.globalAttributes[attribute].max, result[attribute]); &#xa;        } &#xa;    }&#xa;    result._marking = ids.join(&quot;;&quot;);&#xa;    return result; &#xa;}" />
            <ag_aggregation_function name="Security Control" id="73f575i0ghij5" default="activity_g;activity_y" fn="function (collection) { &#xa;    var result = {}; &#xa;    for (var attribute in collection.localAttributes) { &#xa;        result[attribute] = parseInt(collection.localAttributes[attribute]); &#xa;    } &#xa;    collection.childAttributes.forEach(function(child) { &#xa;        for (var attribute in child.attributes) { &#xa;            if (attribute in collection.globalAttributes) { &#xa;                if (attribute in result) { &#xa;                    result[attribute] += parseInt(child.attributes[attribute]); &#xa;                } &#xa;            } &#xa;        } &#xa;    }); &#xa;    for (var attribute in result) { &#xa;        if (attribute in collection.globalAttributes) { &#xa;            result[attribute] = Math.min(collection.globalAttributes[attribute].max, result[attribute]); &#xa;        } &#xa;    } &#xa;    return result; &#xa;}" />
            <ag_aggregation_function name="Risk" id="egf49jfgj408" default="consequence" fn="function (collection) {  &#xa;    var maxRisk = &quot;L&quot;; &#xa;    var matrix = [ &#xa;        [&quot;L&quot;, &quot;L&quot;, &quot;L&quot;, &quot;L&quot;, &quot;L&quot;], &#xa;        [&quot;L&quot;, &quot;L&quot;, &quot;M&quot;, &quot;M&quot;, &quot;M&quot;], &#xa;        [&quot;L&quot;, &quot;M&quot;, &quot;M&quot;, &quot;S&quot;, &quot;S&quot;], &#xa;        [&quot;L&quot;, &quot;M&quot;, &quot;S&quot;, &quot;V&quot;, &quot;V&quot;], &#xa;        [&quot;L&quot;, &quot;M&quot;, &quot;S&quot;, &quot;V&quot;, &quot;V&quot;], &#xa;    ];&#xa;    var updatedImpacts = [];&#xa;    var ids = [];&#xa; &#xa;    var compareRisk = function(risk1, risk2) { &#xa;        /*&#xa;        * Returns:&#xa;        *  - Null: if one of the parameters is not a character representing a risk&#xa;        *  - Negativ integer: if risk1 &lt; risk2&#xa;        *  - Zero: if risks are equal&#xa;        *  - Positive integer: if risk1 &gt; risk2&#xa;        */&#xa;        var values = [&quot;L&quot;, &quot;M&quot;, &quot;S&quot;, &quot;V&quot;]; &#xa;        var index_risk1 = values.indexOf(risk1); &#xa;        var index_risk2 = values.indexOf(risk2); &#xa; &#xa;        if (index_risk1 == -1 || index_risk2 == -1) { &#xa;            return null; &#xa;        } &#xa;        return index_risk1 - index_risk2; &#xa; &#xa;    } &#xa;     &#xa;    collection.childAttributes.forEach(function(child) {  &#xa;        var impact = 1;  &#xa;        if (child.edgeWeight !== null) {  &#xa;            impact = parseInt(child.edgeWeight);  &#xa;        }&#xa;        var _impact = parseInt(child.attributes._impact) || 0;&#xa;        impact = Math.max(impact - _impact, 1);&#xa;        updatedImpacts.push(child.id + &#39;:&#39; + impact);&#xa;        var af = parseInt(child.computedAttribute) || parseInt(child.attributes._af);&#xa;        risk = matrix[af - 1][impact - 1];&#xa;        result = compareRisk(risk, maxRisk);&#xa;        if (result &gt; 0) { &#xa;            maxRisk = risk;&#xa;            ids = [child.id];&#xa;        } else if (result == 0){&#xa;            ids.push(child.id);&#xa;        }&#xa;    });  &#xa;  &#xa;    var result = {&#39;_risk&#39;: maxRisk, &quot;_marking&quot;: ids.join(&quot;;&quot;)};&#xa;    if (updatedImpacts.length &gt; 0) {&#xa;        result._weight = updatedImpacts.join(&#39;;&#39;);&#xa;    }&#xa;    return result;&#xa;}" />
            <ag_aggregation_function name="Impact" id="397423adceb0f" default="" fn="function(collection) {&#xa;    var impact = 0;&#xa;    var result = {}&#xa;    &#xa;    collection.childAttributes.forEach(function(child) {&#xa;        if (&quot;Impact&quot; in child.attributes) {&#xa;            impact += parseInt(child.attributes[&quot;Impact&quot;]);&#xa;        } else if (&quot;Resources&quot; in child.attributes &amp;&amp; &quot;Knowledge&quot; in child.attributes &amp;&amp; &quot;Location&quot; in child.attributes) {&#xa;            result._af = child.computedAttribute&#xa;            result._marking = child.id;&#xa;        }&#xa;    });&#xa;    result._impact = Math.min(impact, collection.globalAttributes[&quot;Impact&quot;].max);&#xa;    &#xa;    return result;&#xa;}" />
          </ag_aggregation_functions>
          <ag_computed_attributes_functions>
            <ag_computed_attributes_function name="default" id="dbg60ff69g9a" default="activity_w;activity_g;activity_y" fn="function (collection) { &#xa;    var colorMatrix = {&#xa;        5: {&quot;fillColor&quot;: &quot;#cc0000&quot;, &quot;fontColor&quot;: &quot;#ffffff&quot;},&#xa;        4: {&quot;fillColor&quot;: &quot;#ff4000&quot;, &quot;fontColor&quot;: &quot;#ffffff&quot;},&#xa;        3: {&quot;fillColor&quot;: &quot;#ffdd00&quot;, &quot;fontColor&quot;: &quot;#000000&quot;},&#xa;        2: {&quot;fillColor&quot;: &quot;#d4ff00&quot;, &quot;fontColor&quot;: &quot;#000000&quot;},&#xa;        1: {&quot;fillColor&quot;: &quot;#40ff00&quot;, &quot;fontColor&quot;: &quot;#000000&quot;}&#xa;    }&#xa;    var matrix = [ &#xa;        [5, 5, 4, 3, 2], &#xa;        [5, 4, 4, 3, 2], &#xa;        [5, 4, 4, 3, 2], &#xa;        [4, 3, 3, 2, 1], &#xa;        [3, 2, 2, 1, 1], &#xa;    ];&#xa;    var result = {};&#xa;    &#xa;    if (&quot;Knowledge&quot; in collection.cellAttributes &amp;&amp; &quot;Resources&quot; in collection.cellAttributes) {&#xa;        var knowledgeIndex = parseInt(collection.cellAttributes[&quot;Knowledge&quot;]) - 1; &#xa;        var resourcesIndex = parseInt(collection.cellAttributes[&quot;Resources&quot;]) - 1;&#xa;        &#xa;        var value = Math.min(5, &#xa;            Math.max(collection.globalAttributes[&quot;Location&quot;].max, &#xa;                Math.max( matrix[knowledgeIndex][resourcesIndex] - parseInt(collection.cellAttributes[&quot;Location&quot;])) &#xa;            ));&#xa;        result = colorMatrix[value] || result;&#xa;        result[&quot;value&quot;] = value;&#xa;    }&#xa;    &#xa;    return result;&#xa;}" />
            <ag_computed_attributes_function name="Risk" id="6c831697g9i0a" default="" fn="function(collection){&#xa;    var riskMatrix = {&#xa;        &quot;V&quot;: {&quot;fillColor&quot;: &quot;#cc0000&quot;, &quot;fontColor&quot;: &quot;#ffffff&quot;},&#xa;        &quot;S&quot;: {&quot;fillColor&quot;: &quot;#ff4000&quot;, &quot;fontColor&quot;: &quot;#ffffff&quot;},&#xa;        &quot;M&quot;: {&quot;fillColor&quot;: &quot;#ffdd00&quot;, &quot;fontColor&quot;: &quot;#000000&quot;},&#xa;        &quot;L&quot;: {&quot;fillColor&quot;: &quot;#40ff00&quot;, &quot;fontColor&quot;: &quot;#000000&quot;},&#xa;    };&#xa;    var result = {};&#xa;    &#xa;    if (&quot;_risk&quot; in collection.cellAttributes) {&#xa;        var risk = collection.cellAttributes[&quot;_risk&quot;];&#xa;        result = riskMatrix[risk] || result;&#xa;        result[&quot;value&quot;] = risk;&#xa;    }&#xa;    &#xa;    return result; &#xa;}" />
          </ag_computed_attributes_functions>
          <mxCell />
        </object>
        <object id="1">
          <ag_attributes />
          <ag_computed_attributes />
          <mxCell parent="0" />
        </object>
        <object label="Finanzieller Schaden Einzelperson" id="Czi3FkVOIS_JeKucCBtk-2">
          <ag_attributes _risk="L" _marking="Czi3FkVOIS_JeKucCBtk-7" _weight="Czi3FkVOIS_JeKucCBtk-7:2" />
          <ag_computed_attributes fillColor="#40ff00" fontColor="#000000" value="L" />
          <ag_computed_attributes_function_reference ag_computed_attributes_function_reference="6c831697g9i0a" />
          <ag_aggregation_function_reference ag_aggregation_function_reference="egf49jfgj408" />
          <mxCell style="verticalAlign=top;align=center;fillColor=#FFFFFF;gradientColor=none;labelBackgroundColor=none;rounded=1;whiteSpace=wrap;shape=attackgraphs.node;spacingRight=20;" parent="1" vertex="1">
            <mxGeometry x="745" y="80" width="180" height="48" as="geometry" />
          </mxCell>
        </object>
        <object label="2" id="jm9SPHePHSSqHUqD5Rmr-9">
          <ag_attributes />
          <ag_computed_attributes />
          <mxCell style="edgeStyle=none;rounded=0;orthogonalLoop=1;jettySize=auto;endFill=1;startSize=6;endSize=6;strokeWidth=2;verticalAlign=top;spacingRight=0;fontSize=15;strokeColor=#000000;" parent="1" source="Czi3FkVOIS_JeKucCBtk-3" target="Czi3FkVOIS_JeKucCBtk-8" edge="1">
            <mxGeometry relative="1" as="geometry" />
          </mxCell>
        </object>
        <object label="2" id="jm9SPHePHSSqHUqD5Rmr-10">
          <ag_attributes />
          <ag_computed_attributes />
          <mxCell style="edgeStyle=none;rounded=0;orthogonalLoop=1;jettySize=auto;endFill=1;startSize=6;endSize=6;strokeWidth=2;verticalAlign=top;spacingRight=0;fontSize=15;strokeColor=#000000;" parent="1" source="Czi3FkVOIS_JeKucCBtk-3" target="Czi3FkVOIS_JeKucCBtk-9" edge="1">
            <mxGeometry relative="1" as="geometry" />
          </mxCell>
        </object>
        <object label="Verletzung von Gesetzen und Verordnungen" id="Czi3FkVOIS_JeKucCBtk-3">
          <ag_attributes _risk="L" _marking="Czi3FkVOIS_JeKucCBtk-8;Czi3FkVOIS_JeKucCBtk-9" _weight="Czi3FkVOIS_JeKucCBtk-8:2;Czi3FkVOIS_JeKucCBtk-9:2" />
          <ag_computed_attributes fillColor="#40ff00" fontColor="#000000" value="L" />
          <ag_computed_attributes_function_reference ag_computed_attributes_function_reference="6c831697g9i0a" />
          <ag_aggregation_function_reference ag_aggregation_function_reference="egf49jfgj408" />
          <mxCell style="verticalAlign=top;align=center;fillColor=#FFFFFF;gradientColor=none;labelBackgroundColor=none;rounded=1;whiteSpace=wrap;shape=attackgraphs.node;spacingRight=20;" parent="1" vertex="1">
            <mxGeometry x="2477.5" y="80" width="180" height="48" as="geometry" />
          </mxCell>
        </object>
        <object label="Finanzieller Schaden&#xa;Betreiber" id="Czi3FkVOIS_JeKucCBtk-4">
          <ag_attributes _risk="L" _marking="Czi3FkVOIS_JeKucCBtk-7;6k28bXPKPwUyEk45xCLn-45" _weight="Czi3FkVOIS_JeKucCBtk-7:2;6k28bXPKPwUyEk45xCLn-45:1" />
          <ag_computed_attributes fillColor="#40ff00" fontColor="#000000" value="L" />
          <ag_computed_attributes_function_reference ag_computed_attributes_function_reference="6c831697g9i0a" />
          <ag_aggregation_function_reference ag_aggregation_function_reference="egf49jfgj408" />
          <mxCell style="verticalAlign=top;align=center;fillColor=#FFFFFF;gradientColor=none;labelBackgroundColor=none;rounded=1;whiteSpace=wrap;shape=attackgraphs.node;spacingRight=20;" parent="1" vertex="1">
            <mxGeometry x="1310" y="80" width="180" height="48" as="geometry" />
          </mxCell>
        </object>
        <object label="Reputationsschaden Einzelperson" id="Czi3FkVOIS_JeKucCBtk-5">
          <ag_attributes _risk="L" _marking="Czi3FkVOIS_JeKucCBtk-7" _weight="Czi3FkVOIS_JeKucCBtk-7:1" />
          <ag_computed_attributes fillColor="#40ff00" fontColor="#000000" value="L" />
          <ag_computed_attributes_function_reference ag_computed_attributes_function_reference="6c831697g9i0a" />
          <ag_aggregation_function_reference ag_aggregation_function_reference="egf49jfgj408" />
          <mxCell style="verticalAlign=top;align=center;fillColor=#FFFFFF;gradientColor=none;labelBackgroundColor=none;rounded=1;whiteSpace=wrap;shape=attackgraphs.node;spacingRight=20;" parent="1" vertex="1">
            <mxGeometry x="521" y="80" width="180" height="48" as="geometry" />
          </mxCell>
        </object>
        <object label="Fahrscheindaten manipulieren" Resources="" Knowledge="" Location="" id="Czi3FkVOIS_JeKucCBtk-7">
          <ag_attributes label="NaN" Resources="4" Knowledge="5" Location="0" _marking="Czi3FkVOIS_JeKucCBtk-105" />
          <ag_computed_attributes fillColor="#40ff00" fontColor="#000000" value="1" />
          <ag_computed_attributes_function_reference ag_computed_attributes_function_reference="dbg60ff69g9a" />
          <ag_aggregation_function_reference ag_aggregation_function_reference="6b1d22791hih8" />
          <mxCell style="verticalAlign=top;align=center;fillColor=#FFFFFF;gradientColor=none;labelBackgroundColor=none;rounded=0;whiteSpace=wrap;shape=attackgraphs.node;spacingRight=20;" parent="1" vertex="1">
            <mxGeometry x="723" y="320" width="224" height="60" as="geometry" />
          </mxCell>
        </object>
        <object id="jm9SPHePHSSqHUqD5Rmr-5">
          <ag_attributes />
          <ag_computed_attributes />
          <mxCell style="edgeStyle=none;rounded=0;orthogonalLoop=1;jettySize=auto;endFill=1;startSize=6;endSize=6;strokeWidth=2;verticalAlign=top;spacingRight=20;strokeColor=#000000;" parent="1" source="Czi3FkVOIS_JeKucCBtk-8" target="Czi3FkVOIS_JeKucCBtk-23" edge="1">
            <mxGeometry relative="1" as="geometry" />
          </mxCell>
        </object>
        <object id="jm9SPHePHSSqHUqD5Rmr-12">
          <ag_attributes />
          <ag_computed_attributes />
          <mxCell style="edgeStyle=none;rounded=0;orthogonalLoop=1;jettySize=auto;entryX=0.483;entryY=0.057;entryDx=0;entryDy=0;entryPerimeter=0;endFill=1;startSize=6;endSize=6;strokeWidth=2;verticalAlign=top;spacingRight=20;strokeColor=#000000;" parent="1" source="Czi3FkVOIS_JeKucCBtk-8" target="Czi3FkVOIS_JeKucCBtk-26" edge="1">
            <mxGeometry relative="1" as="geometry" />
          </mxCell>
        </object>
        <object label="Aufdeckung privater Daten&#xa;(Vorlieben, Gewohnheiten)" Resources="" Knowledge="" Location="" id="Czi3FkVOIS_JeKucCBtk-8">
          <ag_attributes label="NaN" Resources="4" Knowledge="4" Location="1" _marking="Czi3FkVOIS_JeKucCBtk-26" />
          <ag_computed_attributes fillColor="#40ff00" fontColor="#000000" value="1" />
          <ag_computed_attributes_function_reference ag_computed_attributes_function_reference="dbg60ff69g9a" />
          <ag_aggregation_function_reference ag_aggregation_function_reference="6b1d22791hih8" />
          <mxCell style="verticalAlign=top;align=center;fillColor=#FFFFFF;gradientColor=none;labelBackgroundColor=none;rounded=0;whiteSpace=wrap;shape=attackgraphs.node;spacingRight=20;" parent="1" vertex="1">
            <mxGeometry x="2477.5" y="320" width="180" height="60" as="geometry" />
          </mxCell>
        </object>
        <object id="jm9SPHePHSSqHUqD5Rmr-6">
          <ag_attributes />
          <ag_computed_attributes />
          <mxCell style="edgeStyle=none;rounded=0;orthogonalLoop=1;jettySize=auto;endFill=1;startSize=6;endSize=6;strokeWidth=2;verticalAlign=top;spacingRight=20;strokeColor=#000000;" parent="1" source="Czi3FkVOIS_JeKucCBtk-9" target="Czi3FkVOIS_JeKucCBtk-21" edge="1">
            <mxGeometry relative="1" as="geometry" />
          </mxCell>
        </object>
        <object label="Individuellem Nutzer nachstellen" Resources="" Knowledge="" Location="" id="Czi3FkVOIS_JeKucCBtk-9">
          <ag_attributes label="NaN" Resources="4" Knowledge="4" Location="1" _marking="Czi3FkVOIS_JeKucCBtk-21" />
          <ag_computed_attributes fillColor="#40ff00" fontColor="#000000" value="1" />
          <ag_computed_attributes_function_reference ag_computed_attributes_function_reference="dbg60ff69g9a" />
          <ag_aggregation_function_reference ag_aggregation_function_reference="6b1d22791hih8" />
          <mxCell style="verticalAlign=top;align=center;fillColor=#FFFFFF;gradientColor=none;labelBackgroundColor=none;rounded=0;whiteSpace=wrap;shape=attackgraphs.node;spacingRight=20;" parent="1" vertex="1">
            <mxGeometry x="2790.5" y="320" width="180" height="60" as="geometry" />
          </mxCell>
        </object>
        <object label="2" id="Czi3FkVOIS_JeKucCBtk-13">
          <ag_attributes />
          <ag_computed_attributes />
          <mxCell style="endArrow=classic;rounded=0;spacingTop=0;spacingLeft=0;spacingBottom=0;spacingRight=0;endFill=1;endSize=6;startSize=6;strokeWidth=2;verticalAlign=top;fontSize=15;strokeColor=#000000;" parent="1" source="Czi3FkVOIS_JeKucCBtk-4" target="Czi3FkVOIS_JeKucCBtk-7" edge="1">
            <mxGeometry width="50" height="50" relative="1" as="geometry">
              <mxPoint x="2463.2000000000003" y="360" as="sourcePoint" />
              <mxPoint x="1976.7999999999997" y="207.9999999999999" as="targetPoint" />
            </mxGeometry>
          </mxCell>
        </object>
        <object label="2" id="Czi3FkVOIS_JeKucCBtk-14">
          <ag_attributes />
          <ag_computed_attributes />
          <mxCell style="endArrow=classic;rounded=0;spacingTop=0;spacingLeft=0;spacingBottom=0;spacingRight=0;endFill=1;endSize=6;startSize=6;strokeWidth=2;verticalAlign=top;fontSize=15;strokeColor=#000000;" parent="1" source="Czi3FkVOIS_JeKucCBtk-2" target="Czi3FkVOIS_JeKucCBtk-7" edge="1">
            <mxGeometry width="50" height="50" relative="1" as="geometry">
              <mxPoint x="2268.76" y="360" as="sourcePoint" />
              <mxPoint x="2495.24" y="207.9999999999999" as="targetPoint" />
            </mxGeometry>
          </mxCell>
        </object>
        <object id="jm9SPHePHSSqHUqD5Rmr-1">
          <ag_attributes />
          <ag_computed_attributes />
          <mxCell style="edgeStyle=none;rounded=0;orthogonalLoop=1;jettySize=auto;endFill=1;startSize=6;endSize=6;strokeWidth=2;verticalAlign=top;spacingRight=20;strokeColor=#000000;" parent="1" source="Czi3FkVOIS_JeKucCBtk-16" target="Czi3FkVOIS_JeKucCBtk-138" edge="1">
            <mxGeometry relative="1" as="geometry" />
          </mxCell>
        </object>
        <object id="jm9SPHePHSSqHUqD5Rmr-2">
          <ag_attributes />
          <ag_computed_attributes />
          <mxCell style="edgeStyle=none;rounded=0;orthogonalLoop=1;jettySize=auto;endFill=1;startSize=6;endSize=6;strokeWidth=2;verticalAlign=top;spacingRight=20;strokeColor=#000000;" parent="1" source="Czi3FkVOIS_JeKucCBtk-16" target="Czi3FkVOIS_JeKucCBtk-94" edge="1">
            <mxGeometry relative="1" as="geometry" />
          </mxCell>
        </object>
        <object id="jm9SPHePHSSqHUqD5Rmr-3">
          <ag_attributes />
          <ag_computed_attributes />
          <mxCell style="edgeStyle=none;rounded=0;orthogonalLoop=1;jettySize=auto;endFill=1;startSize=6;endSize=6;strokeWidth=2;verticalAlign=top;spacingRight=20;strokeColor=#000000;" parent="1" source="Czi3FkVOIS_JeKucCBtk-16" target="Czi3FkVOIS_JeKucCBtk-79" edge="1">
            <mxGeometry relative="1" as="geometry" />
          </mxCell>
        </object>
        <object id="jm9SPHePHSSqHUqD5Rmr-4">
          <ag_attributes />
          <ag_computed_attributes />
          <mxCell style="edgeStyle=none;rounded=0;orthogonalLoop=1;jettySize=auto;endFill=1;startSize=6;endSize=6;strokeWidth=2;verticalAlign=top;spacingRight=20;strokeColor=#000000;" parent="1" source="Czi3FkVOIS_JeKucCBtk-16" target="Czi3FkVOIS_JeKucCBtk-25" edge="1">
            <mxGeometry relative="1" as="geometry" />
          </mxCell>
        </object>
        <object label="Verfügbarkeit des Dienstes beschränken" Resources="" Knowledge="" Location="" id="Czi3FkVOIS_JeKucCBtk-16">
          <ag_attributes label="NaN" Resources="5" Knowledge="3" Location="0" _marking="Czi3FkVOIS_JeKucCBtk-79" />
          <ag_computed_attributes fillColor="#d4ff00" fontColor="#000000" value="2" />
          <ag_computed_attributes_function_reference ag_computed_attributes_function_reference="dbg60ff69g9a" />
          <ag_aggregation_function_reference ag_aggregation_function_reference="6b1d22791hih8" />
          <mxCell style="verticalAlign=top;align=center;fillColor=#FFFFFF;gradientColor=none;labelBackgroundColor=none;rounded=0;whiteSpace=wrap;shape=attackgraphs.node;spacingRight=20;" parent="1" vertex="1">
            <mxGeometry x="1848" y="320" width="224" height="60" as="geometry" />
          </mxCell>
        </object>
        <object label="3" id="Czi3FkVOIS_JeKucCBtk-17">
          <ag_attributes />
          <ag_computed_attributes />
          <mxCell style="html=1;endArrow=classic;rounded=0;spacingTop=0;spacingLeft=0;spacingBottom=0;spacingRight=0;endFill=1;endSize=6;startSize=6;strokeWidth=2;verticalAlign=top;fontSize=15;strokeColor=#000000;" parent="1" source="Czi3FkVOIS_JeKucCBtk-4" target="6k28bXPKPwUyEk45xCLn-45" edge="1">
            <mxGeometry width="50" height="50" relative="1" as="geometry">
              <mxPoint x="2166.7000000000003" y="320" as="sourcePoint" />
              <mxPoint x="2375.3" y="208" as="targetPoint" />
            </mxGeometry>
          </mxCell>
        </object>
        <object label="1" id="Czi3FkVOIS_JeKucCBtk-20">
          <ag_attributes />
          <ag_computed_attributes />
          <mxCell style="endArrow=classic;rounded=0;spacingTop=0;spacingLeft=0;spacingBottom=0;spacingRight=0;endFill=1;endSize=6;startSize=6;strokeWidth=2;verticalAlign=top;fontSize=15;strokeColor=#000000;" parent="1" source="Czi3FkVOIS_JeKucCBtk-5" target="Czi3FkVOIS_JeKucCBtk-7" edge="1">
            <mxGeometry width="50" height="50" relative="1" as="geometry">
              <mxPoint x="2853.5" y="320" as="sourcePoint" />
              <mxPoint x="2818.5" y="208" as="targetPoint" />
            </mxGeometry>
          </mxCell>
        </object>
        <object label="Kommunikation abhören" Resources="" Knowledge="" Location="" id="Czi3FkVOIS_JeKucCBtk-21">
          <ag_attributes label="NaN" Resources="4" Knowledge="4" Location="1" _marking="Czi3FkVOIS_JeKucCBtk-22" />
          <ag_computed_attributes fillColor="#40ff00" fontColor="#000000" value="1" />
          <ag_computed_attributes_function_reference ag_computed_attributes_function_reference="dbg60ff69g9a" />
          <ag_aggregation_function_reference ag_aggregation_function_reference="6b1d22791hih8" />
          <mxCell style="verticalAlign=top;align=center;fillColor=#FFFFFF;gradientColor=none;labelBackgroundColor=none;rounded=0;whiteSpace=wrap;shape=attackgraphs.node;spacingRight=20;" parent="1" vertex="1">
            <mxGeometry x="2690" y="480" width="160" height="60" as="geometry" />
          </mxCell>
        </object>
        <object id="DnPNwphCSTHKcsrJFPOQ-10">
          <ag_attributes />
          <ag_computed_attributes />
          <mxCell style="edgeStyle=none;shape=connector;rounded=0;orthogonalLoop=1;jettySize=auto;html=1;labelBackgroundColor=default;strokeColor=#000000;strokeWidth=2;fontFamily=Helvetica;fontSize=11;fontColor=default;startArrow=diamondThin;startFill=1;endArrow=none;endFill=0;" parent="1" source="Czi3FkVOIS_JeKucCBtk-22" target="DnPNwphCSTHKcsrJFPOQ-9" edge="1">
            <mxGeometry relative="1" as="geometry" />
          </mxCell>
        </object>
        <object label="Persönliches Endgerät abhören" Resources="2" Knowledge="2" Location="0" id="Czi3FkVOIS_JeKucCBtk-22">
          <ag_attributes label="NaN" Resources="4" Knowledge="4" Location="1" />
          <ag_computed_attributes fillColor="#40ff00" fontColor="#000000" value="1" />
          <ag_computed_attributes_function_reference ag_computed_attributes_function_reference="dbg60ff69g9a" />
          <ag_aggregation_function_reference ag_aggregation_function_reference="73f575i0ghij5" />
          <mxCell style="verticalAlign=top;align=center;fillColor=#fee599;gradientColor=none;labelBackgroundColor=none;rounded=0;whiteSpace=wrap;shape=attackgraphs.node;spacingRight=20;" parent="1" vertex="1">
            <mxGeometry x="2926" y="640" width="150" height="75" as="geometry" />
          </mxCell>
        </object>
        <object id="6k28bXPKPwUyEk45xCLn-15">
          <ag_attributes />
          <ag_computed_attributes />
          <mxCell style="edgeStyle=none;orthogonalLoop=1;jettySize=auto;html=1;strokeWidth=2;startArrow=diamondThin;startFill=1;endArrow=none;endFill=0;strokeColor=#000000;curved=1;" parent="1" source="Czi3FkVOIS_JeKucCBtk-23" target="hBg2pZH1YuUEVgYuRoB0-1" edge="1">
            <mxGeometry relative="1" as="geometry">
              <mxPoint x="2860" y="980" as="targetPoint" />
              <Array as="points">
                <mxPoint x="2860" y="760" />
              </Array>
            </mxGeometry>
          </mxCell>
        </object>
        <object id="6k28bXPKPwUyEk45xCLn-16">
          <ag_attributes />
          <ag_computed_attributes />
          <mxCell style="edgeStyle=none;orthogonalLoop=1;jettySize=auto;html=1;strokeWidth=2;startArrow=diamondThin;startFill=1;endArrow=none;endFill=0;exitX=0.75;exitY=1;exitDx=0;exitDy=0;strokeColor=#000000;curved=1;" parent="1" source="Czi3FkVOIS_JeKucCBtk-23" target="6k28bXPKPwUyEk45xCLn-12" edge="1">
            <mxGeometry relative="1" as="geometry">
              <Array as="points">
                <mxPoint x="3180" y="710" />
              </Array>
            </mxGeometry>
          </mxCell>
        </object>
        <object label="Datensätze korrelieren" Resources="1" Knowledge="2" Location="0" id="Czi3FkVOIS_JeKucCBtk-23">
          <ag_attributes label="NaN" Resources="4" Knowledge="5" Location="0" />
          <ag_computed_attributes fillColor="#40ff00" fontColor="#000000" value="1" />
          <ag_computed_attributes_function_reference ag_computed_attributes_function_reference="dbg60ff69g9a" />
          <ag_aggregation_function_reference ag_aggregation_function_reference="73f575i0ghij5" />
          <mxCell style="verticalAlign=top;align=center;fillColor=#d7e3bf;gradientColor=none;labelBackgroundColor=none;rounded=0;whiteSpace=wrap;shape=attackgraphs.node;spacingRight=20;" parent="1" vertex="1">
            <mxGeometry x="2880" y="480" width="160" height="60" as="geometry" />
          </mxCell>
        </object>
        <object id="6k28bXPKPwUyEk45xCLn-23">
          <ag_attributes />
          <ag_computed_attributes />
          <mxCell style="edgeStyle=none;orthogonalLoop=1;jettySize=auto;html=1;strokeWidth=2;startArrow=diamondThin;startFill=1;endArrow=none;endFill=0;strokeColor=#000000;curved=1;" parent="1" source="Czi3FkVOIS_JeKucCBtk-24" target="6k28bXPKPwUyEk45xCLn-9" edge="1">
            <mxGeometry relative="1" as="geometry">
              <Array as="points">
                <mxPoint x="2280" y="760" />
              </Array>
            </mxGeometry>
          </mxCell>
        </object>
        <object label="Ransomware einschleusen" Resources="2" Knowledge="3" Location="0" id="Czi3FkVOIS_JeKucCBtk-24">
          <ag_attributes label="NaN" Resources="4" Knowledge="5" Location="0" />
          <ag_computed_attributes fillColor="#40ff00" fontColor="#000000" value="1" />
          <ag_computed_attributes_function_reference ag_computed_attributes_function_reference="dbg60ff69g9a" />
          <ag_aggregation_function_reference ag_aggregation_function_reference="73f575i0ghij5" />
          <mxCell style="verticalAlign=top;align=center;fillColor=#d7e3bf;gradientColor=none;labelBackgroundColor=none;rounded=0;whiteSpace=wrap;shape=attackgraphs.node;spacingRight=20;" parent="1" vertex="1">
            <mxGeometry x="2310" y="640" width="150" height="75" as="geometry" />
          </mxCell>
        </object>
        <object label="Daten unlesbar machen" Resources="" Knowledge="" Location="" id="Czi3FkVOIS_JeKucCBtk-25">
          <ag_attributes label="NaN" Resources="4" Knowledge="5" Location="0" _marking="Czi3FkVOIS_JeKucCBtk-24" />
          <ag_computed_attributes fillColor="#40ff00" fontColor="#000000" value="1" />
          <ag_computed_attributes_function_reference ag_computed_attributes_function_reference="dbg60ff69g9a" />
          <ag_aggregation_function_reference ag_aggregation_function_reference="6b1d22791hih8" />
          <mxCell style="verticalAlign=top;align=center;fillColor=#FFFFFF;gradientColor=none;labelBackgroundColor=none;rounded=0;whiteSpace=wrap;shape=attackgraphs.node;spacingRight=20;" parent="1" vertex="1">
            <mxGeometry x="2230" y="480" width="144" height="60" as="geometry" />
          </mxCell>
        </object>
        <object label="Daten ausleiten" Resources="" Knowledge="" Location="" id="Czi3FkVOIS_JeKucCBtk-26">
          <ag_attributes label="NaN" Resources="4" Knowledge="4" Location="1" _marking="Czi3FkVOIS_JeKucCBtk-22" />
          <ag_computed_attributes fillColor="#40ff00" fontColor="#000000" value="1" />
          <ag_computed_attributes_function_reference ag_computed_attributes_function_reference="dbg60ff69g9a" />
          <ag_aggregation_function_reference ag_aggregation_function_reference="6b1d22791hih8" />
          <mxCell style="verticalAlign=top;align=center;fillColor=#FFFFFF;gradientColor=none;labelBackgroundColor=none;rounded=0;whiteSpace=wrap;shape=attackgraphs.node;spacingRight=20;" parent="1" vertex="1">
            <mxGeometry x="2477.5" y="480" width="144" height="60" as="geometry" />
          </mxCell>
        </object>
        <object id="6k28bXPKPwUyEk45xCLn-24">
          <ag_attributes />
          <ag_computed_attributes />
          <mxCell style="edgeStyle=none;orthogonalLoop=1;jettySize=auto;html=1;strokeWidth=2;startArrow=diamondThin;startFill=1;endArrow=none;endFill=0;strokeColor=#000000;curved=1;" parent="1" source="Czi3FkVOIS_JeKucCBtk-28" target="6k28bXPKPwUyEk45xCLn-9" edge="1">
            <mxGeometry relative="1" as="geometry">
              <Array as="points">
                <mxPoint x="2530" y="760" />
              </Array>
            </mxGeometry>
          </mxCell>
        </object>
        <object label="Malware einschleusen" Resources="3" Knowledge="3" Location="0" id="Czi3FkVOIS_JeKucCBtk-28">
          <ag_attributes label="NaN" Resources="5" Knowledge="5" Location="0" />
          <ag_computed_attributes fillColor="#40ff00" fontColor="#000000" value="1" />
          <ag_computed_attributes_function_reference ag_computed_attributes_function_reference="dbg60ff69g9a" />
          <ag_aggregation_function_reference ag_aggregation_function_reference="73f575i0ghij5" />
          <mxCell style="verticalAlign=top;align=center;fillColor=#d7e3bf;gradientColor=none;labelBackgroundColor=none;rounded=0;whiteSpace=wrap;shape=attackgraphs.node;spacingRight=20;" parent="1" vertex="1">
            <mxGeometry x="2477.5" y="640" width="150" height="75" as="geometry" />
          </mxCell>
        </object>
        <object id="Czi3FkVOIS_JeKucCBtk-30">
          <ag_attributes />
          <ag_computed_attributes />
          <mxCell style="edgeStyle=none;startArrow=none;endArrow=classic;startSize=6;endSize=6;spacingTop=0;spacingBottom=0;spacingLeft=0;spacingRight=20;verticalAlign=top;labelBackgroundColor=#ffffff;rounded=0;entryX=0.5;entryY=0;entryDx=0;entryDy=0;entryPerimeter=0;endFill=1;strokeWidth=2;strokeColor=#000000;" parent="1" source="Czi3FkVOIS_JeKucCBtk-9" target="Czi3FkVOIS_JeKucCBtk-23" edge="1">
            <mxGeometry relative="1" as="geometry">
              <mxPoint as="offset" />
              <Array as="points" />
              <mxPoint x="2728" y="348" as="sourcePoint" />
            </mxGeometry>
          </mxCell>
        </object>
        <object label="" id="Czi3FkVOIS_JeKucCBtk-31">
          <ag_attributes />
          <ag_computed_attributes />
          <mxCell style="edgeStyle=none;startArrow=none;endArrow=classic;startSize=6;endSize=6;spacingTop=0;spacingBottom=0;spacingLeft=0;spacingRight=20;verticalAlign=top;labelBackgroundColor=#ffffff;rounded=0;align=center;entryX=0.4652777777777778;entryY=0;entryDx=0;entryDy=0;entryPerimeter=0;endFill=1;strokeWidth=2;strokeColor=#000000;" parent="1" source="Czi3FkVOIS_JeKucCBtk-26" target="Czi3FkVOIS_JeKucCBtk-28" edge="1">
            <mxGeometry relative="1" as="geometry">
              <mxPoint x="-1" y="-1" as="offset" />
              <Array as="points" />
            </mxGeometry>
          </mxCell>
        </object>
        <object label="" id="Czi3FkVOIS_JeKucCBtk-34">
          <ag_attributes />
          <ag_computed_attributes />
          <mxCell style="edgeStyle=none;startArrow=none;endArrow=classic;startSize=6;endSize=6;spacingTop=0;spacingBottom=0;spacingLeft=0;spacingRight=20;verticalAlign=top;labelBackgroundColor=#ffffff;rounded=0;align=center;entryX=0.6111111111111112;entryY=0;entryDx=0;entryDy=0;entryPerimeter=0;endFill=1;strokeWidth=2;strokeColor=#000000;" parent="1" source="Czi3FkVOIS_JeKucCBtk-26" target="Czi3FkVOIS_JeKucCBtk-24" edge="1">
            <mxGeometry relative="1" as="geometry">
              <mxPoint x="-1" as="offset" />
              <Array as="points" />
            </mxGeometry>
          </mxCell>
        </object>
        <object id="Czi3FkVOIS_JeKucCBtk-36">
          <ag_attributes />
          <ag_computed_attributes />
          <mxCell style="edgeStyle=none;startArrow=none;endArrow=classic;startSize=6;endSize=6;spacingTop=0;spacingBottom=0;spacingLeft=0;spacingRight=20;verticalAlign=top;labelBackgroundColor=#ffffff;rounded=0;entryX=0.4583333333333333;entryY=0;entryDx=0;entryDy=0;entryPerimeter=0;endFill=1;strokeWidth=2;strokeColor=#000000;" parent="1" source="Czi3FkVOIS_JeKucCBtk-25" target="Czi3FkVOIS_JeKucCBtk-24" edge="1">
            <mxGeometry relative="1" as="geometry">
              <mxPoint x="-1" y="-1" as="offset" />
              <Array as="points" />
            </mxGeometry>
          </mxCell>
        </object>
        <object id="Czi3FkVOIS_JeKucCBtk-39">
          <ag_attributes />
          <ag_computed_attributes />
          <mxCell style="edgeStyle=none;startArrow=none;endArrow=classic;startSize=6;endSize=6;spacingTop=0;spacingBottom=0;spacingLeft=0;spacingRight=20;verticalAlign=top;labelBackgroundColor=#ffffff;rounded=0;entryX=0.43125;entryY=0;entryDx=0;entryDy=0;entryPerimeter=0;endFill=1;strokeWidth=2;strokeColor=#000000;" parent="1" source="Czi3FkVOIS_JeKucCBtk-8" target="Czi3FkVOIS_JeKucCBtk-21" edge="1">
            <mxGeometry relative="1" as="geometry">
              <mxPoint x="-1" y="-1" as="offset" />
              <Array as="points" />
              <mxPoint x="2510.999999999999" y="348" as="sourcePoint" />
            </mxGeometry>
          </mxCell>
        </object>
        <object label="" id="Czi3FkVOIS_JeKucCBtk-40">
          <ag_attributes />
          <ag_computed_attributes />
          <mxCell style="edgeStyle=none;startArrow=none;endArrow=classic;startSize=6;endSize=6;spacingTop=0;spacingBottom=0;spacingLeft=0;spacingRight=20;verticalAlign=top;labelBackgroundColor=#ffffff;rounded=0;align=center;endFill=1;strokeWidth=2;strokeColor=#000000;" parent="1" source="Czi3FkVOIS_JeKucCBtk-21" target="Czi3FkVOIS_JeKucCBtk-75" edge="1">
            <mxGeometry x="0.5312" relative="1" as="geometry">
              <mxPoint as="offset" />
              <Array as="points" />
              <mxPoint x="2673" y="648" as="targetPoint" />
            </mxGeometry>
          </mxCell>
        </object>
        <object label="" id="Czi3FkVOIS_JeKucCBtk-41">
          <ag_attributes />
          <ag_computed_attributes />
          <mxCell style="edgeStyle=none;startArrow=none;endArrow=classic;startSize=6;endSize=6;spacingTop=0;spacingBottom=0;spacingLeft=0;spacingRight=20;verticalAlign=top;labelBackgroundColor=#ffffff;rounded=0;align=center;endFill=1;strokeWidth=2;strokeColor=#000000;" parent="1" source="Czi3FkVOIS_JeKucCBtk-21" target="Czi3FkVOIS_JeKucCBtk-22" edge="1">
            <mxGeometry relative="1" as="geometry">
              <mxPoint as="offset" />
              <Array as="points" />
            </mxGeometry>
          </mxCell>
        </object>
        <object label="" id="Czi3FkVOIS_JeKucCBtk-45">
          <ag_attributes />
          <ag_computed_attributes />
          <mxCell style="edgeStyle=none;startArrow=none;endArrow=classic;startSize=6;endSize=6;spacingTop=0;spacingBottom=0;spacingLeft=0;spacingRight=20;verticalAlign=top;labelBackgroundColor=#ffffff;rounded=0;align=center;exitX=0.69;exitY=1.033;exitDx=0;exitDy=0;exitPerimeter=0;entryX=0.049;entryY=0.035;entryDx=0;entryDy=0;entryPerimeter=0;endFill=1;strokeWidth=2;strokeColor=#000000;" parent="1" source="Czi3FkVOIS_JeKucCBtk-26" target="Czi3FkVOIS_JeKucCBtk-75" edge="1">
            <mxGeometry relative="1" as="geometry">
              <mxPoint x="-1" y="-1" as="offset" />
              <Array as="points" />
              <mxPoint x="2640" y="535" as="sourcePoint" />
              <mxPoint x="2638.5279999999993" y="648.6800000000001" as="targetPoint" />
            </mxGeometry>
          </mxCell>
        </object>
        <object label="" id="Czi3FkVOIS_JeKucCBtk-46">
          <ag_attributes />
          <ag_computed_attributes />
          <mxCell style="edgeStyle=none;startArrow=none;endArrow=classic;startSize=6;endSize=6;spacingTop=0;spacingBottom=0;spacingLeft=0;spacingRight=20;verticalAlign=top;labelBackgroundColor=#ffffff;rounded=0;align=center;entryX=0.064;entryY=0.033;entryDx=0;entryDy=0;entryPerimeter=0;endFill=1;strokeWidth=2;strokeColor=#000000;" parent="1" source="Czi3FkVOIS_JeKucCBtk-26" target="Czi3FkVOIS_JeKucCBtk-22" edge="1">
            <mxGeometry x="0.6488" y="-3" relative="1" as="geometry">
              <mxPoint as="offset" />
              <Array as="points" />
              <mxPoint x="2489.3600000000006" y="536.155" as="sourcePoint" />
              <mxPoint x="2648.5280000000002" y="658.6800000000001" as="targetPoint" />
            </mxGeometry>
          </mxCell>
        </object>
        <object id="6k28bXPKPwUyEk45xCLn-22">
          <ag_attributes />
          <ag_computed_attributes />
          <mxCell style="edgeStyle=none;rounded=0;orthogonalLoop=1;jettySize=auto;html=1;strokeWidth=2;startArrow=diamondThin;startFill=1;endArrow=none;endFill=0;verticalAlign=top;spacingRight=20;strokeColor=#000000;" parent="1" source="Czi3FkVOIS_JeKucCBtk-75" target="6k28bXPKPwUyEk45xCLn-19" edge="1">
            <mxGeometry relative="1" as="geometry" />
          </mxCell>
        </object>
        <object label="Kommunikationswege abhören" Resources="2" Knowledge="2" Location="0" id="Czi3FkVOIS_JeKucCBtk-75">
          <ag_attributes label="NaN" Resources="5" Knowledge="5" Location="0" />
          <ag_computed_attributes fillColor="#40ff00" fontColor="#000000" value="1" />
          <ag_computed_attributes_function_reference ag_computed_attributes_function_reference="dbg60ff69g9a" />
          <ag_aggregation_function_reference ag_aggregation_function_reference="73f575i0ghij5" />
          <mxCell style="verticalAlign=top;align=center;fillColor=#fee599;gradientColor=none;labelBackgroundColor=none;rounded=0;whiteSpace=wrap;shape=attackgraphs.node;spacingRight=20;" parent="1" vertex="1">
            <mxGeometry x="2690" y="640" width="150" height="75" as="geometry" />
          </mxCell>
        </object>
        <object label="Verfügbarkeit des Datenbestandes beschränken" Resources="" Knowledge="" Location="" id="Czi3FkVOIS_JeKucCBtk-79">
          <ag_attributes label="NaN" Resources="5" Knowledge="3" Location="0" _marking="Czi3FkVOIS_JeKucCBtk-81" />
          <ag_computed_attributes fillColor="#d4ff00" fontColor="#000000" value="2" />
          <ag_computed_attributes_function_reference ag_computed_attributes_function_reference="dbg60ff69g9a" />
          <ag_aggregation_function_reference ag_aggregation_function_reference="6b1d22791hih8" />
          <mxCell style="verticalAlign=top;align=center;fillColor=#FFFFFF;gradientColor=none;labelBackgroundColor=none;rounded=0;whiteSpace=wrap;shape=attackgraphs.node;spacingRight=20;" parent="1" vertex="1">
            <mxGeometry x="1990" y="480" width="224" height="60" as="geometry" />
          </mxCell>
        </object>
        <object id="6k28bXPKPwUyEk45xCLn-27">
          <ag_attributes />
          <ag_computed_attributes />
          <mxCell style="edgeStyle=none;rounded=0;orthogonalLoop=1;jettySize=auto;html=1;strokeWidth=2;startArrow=diamondThin;startFill=1;endArrow=none;endFill=0;verticalAlign=top;spacingRight=20;strokeColor=#000000;" parent="1" source="Czi3FkVOIS_JeKucCBtk-80" target="6k28bXPKPwUyEk45xCLn-14" edge="1">
            <mxGeometry relative="1" as="geometry" />
          </mxCell>
        </object>
        <object label="Daten löschen" Resources="3" Knowledge="3" Location="0" id="Czi3FkVOIS_JeKucCBtk-80">
          <ag_attributes label="NaN" Resources="5" Knowledge="5" Location="0" />
          <ag_computed_attributes fillColor="#40ff00" fontColor="#000000" value="1" />
          <ag_computed_attributes_function_reference ag_computed_attributes_function_reference="dbg60ff69g9a" />
          <ag_aggregation_function_reference ag_aggregation_function_reference="73f575i0ghij5" />
          <mxCell style="verticalAlign=top;align=center;fillColor=#d7e3bf;gradientColor=none;labelBackgroundColor=none;rounded=0;whiteSpace=wrap;shape=attackgraphs.node;spacingRight=20;" parent="1" vertex="1">
            <mxGeometry x="1952" y="640" width="150" height="75" as="geometry" />
          </mxCell>
        </object>
        <object id="6k28bXPKPwUyEk45xCLn-30">
          <ag_attributes />
          <ag_computed_attributes />
          <mxCell style="edgeStyle=none;rounded=0;orthogonalLoop=1;jettySize=auto;html=1;strokeWidth=2;startArrow=diamondThin;startFill=1;endArrow=none;endFill=0;verticalAlign=top;spacingRight=20;strokeColor=#000000;" parent="1" source="Czi3FkVOIS_JeKucCBtk-81" target="6k28bXPKPwUyEk45xCLn-29" edge="1">
            <mxGeometry relative="1" as="geometry" />
          </mxCell>
        </object>
        <object label="(D)DoS" Resources="2" Knowledge="2" Location="0" id="Czi3FkVOIS_JeKucCBtk-81">
          <ag_attributes label="NaN" Resources="5" Knowledge="3" Location="0" />
          <ag_computed_attributes fillColor="#d4ff00" fontColor="#000000" value="2" />
          <ag_computed_attributes_function_reference ag_computed_attributes_function_reference="dbg60ff69g9a" />
          <ag_aggregation_function_reference ag_aggregation_function_reference="73f575i0ghij5" />
          <mxCell style="verticalAlign=top;align=center;fillColor=#fee599;gradientColor=none;labelBackgroundColor=none;rounded=0;whiteSpace=wrap;shape=attackgraphs.node;spacingRight=20;" parent="1" vertex="1">
            <mxGeometry x="2132" y="640" width="150" height="75" as="geometry" />
          </mxCell>
        </object>
        <object label="" id="Czi3FkVOIS_JeKucCBtk-91">
          <ag_attributes />
          <ag_computed_attributes />
          <mxCell style="edgeStyle=none;startArrow=none;endArrow=classic;startSize=6;endSize=6;spacingTop=0;spacingBottom=0;spacingLeft=0;spacingRight=20;verticalAlign=top;labelBackgroundColor=#ffffff;rounded=0;align=center;exitX=0.44642857142857145;exitY=1.0208333333333333;exitDx=0;exitDy=0;exitPerimeter=0;entryX=0.575;entryY=0;entryDx=0;entryDy=0;entryPerimeter=0;endFill=1;strokeWidth=2;strokeColor=#000000;" parent="1" source="Czi3FkVOIS_JeKucCBtk-79" target="Czi3FkVOIS_JeKucCBtk-80" edge="1">
            <mxGeometry relative="1" as="geometry">
              <mxPoint x="-1" as="offset" />
              <Array as="points" />
            </mxGeometry>
          </mxCell>
        </object>
        <object label="" id="Czi3FkVOIS_JeKucCBtk-92">
          <ag_attributes />
          <ag_computed_attributes />
          <mxCell style="edgeStyle=none;startArrow=none;endArrow=classic;startSize=6;endSize=6;spacingTop=0;spacingBottom=0;spacingLeft=0;spacingRight=20;verticalAlign=top;labelBackgroundColor=#ffffff;rounded=0;align=center;exitX=0.5669642857142857;exitY=1.0208333333333333;exitDx=0;exitDy=0;exitPerimeter=0;entryX=0.4083333333333333;entryY=0;entryDx=0;entryDy=0;entryPerimeter=0;endFill=1;strokeWidth=2;strokeColor=#000000;" parent="1" source="Czi3FkVOIS_JeKucCBtk-79" target="Czi3FkVOIS_JeKucCBtk-81" edge="1">
            <mxGeometry relative="1" as="geometry">
              <mxPoint x="-1" y="-1" as="offset" />
              <Array as="points" />
            </mxGeometry>
          </mxCell>
        </object>
        <object label="Verfügbarkeit des Übertragungsnetzwerkes beschränken" Resources="" Knowledge="" Location="" id="Czi3FkVOIS_JeKucCBtk-94">
          <ag_attributes label="5" Resources="4" Knowledge="5" Location="1" _marking="Czi3FkVOIS_JeKucCBtk-95" />
          <ag_computed_attributes fillColor="#40ff00" fontColor="#000000" value="1" />
          <ag_computed_attributes_function_reference ag_computed_attributes_function_reference="dbg60ff69g9a" />
          <ag_aggregation_function_reference ag_aggregation_function_reference="6b1d22791hih8" />
          <mxCell style="verticalAlign=top;align=center;fillColor=#FFFFFF;gradientColor=none;labelBackgroundColor=none;rounded=0;whiteSpace=wrap;shape=attackgraphs.node;spacingRight=20;" parent="1" vertex="1">
            <mxGeometry x="1700" y="480" width="254" height="60" as="geometry" />
          </mxCell>
        </object>
        <object id="6k28bXPKPwUyEk45xCLn-26">
          <ag_attributes />
          <ag_computed_attributes />
          <mxCell style="edgeStyle=none;rounded=0;orthogonalLoop=1;jettySize=auto;html=1;strokeWidth=2;startArrow=diamondThin;startFill=1;endArrow=none;endFill=0;strokeColor=#000000;" parent="1" source="Czi3FkVOIS_JeKucCBtk-95" target="6k28bXPKPwUyEk45xCLn-25" edge="1">
            <mxGeometry relative="1" as="geometry" />
          </mxCell>
        </object>
        <object label="5G/FRMCS Jamming" Resources="2" Knowledge="2" Location="1" id="Czi3FkVOIS_JeKucCBtk-95">
          <ag_attributes label="5" Resources="4" Knowledge="5" Location="1" />
          <ag_computed_attributes fillColor="#40ff00" fontColor="#000000" value="1" />
          <ag_computed_attributes_function_reference ag_computed_attributes_function_reference="dbg60ff69g9a" />
          <ag_aggregation_function_reference ag_aggregation_function_reference="73f575i0ghij5" />
          <mxCell style="verticalAlign=top;align=center;fillColor=#fee599;gradientColor=none;labelBackgroundColor=none;rounded=0;whiteSpace=wrap;shape=attackgraphs.node;spacingRight=20;" parent="1" vertex="1">
            <mxGeometry x="1790" y="640" width="150" height="75" as="geometry" />
          </mxCell>
        </object>
        <object label="" id="Czi3FkVOIS_JeKucCBtk-96">
          <ag_attributes />
          <ag_computed_attributes />
          <mxCell style="edgeStyle=none;startArrow=none;endArrow=classic;startSize=6;endSize=6;spacingTop=0;spacingBottom=0;spacingLeft=0;spacingRight=20;verticalAlign=top;labelBackgroundColor=#ffffff;rounded=0;align=center;exitX=0.5625;exitY=1.0208333333333333;exitDx=0;exitDy=0;exitPerimeter=0;entryX=0.425;entryY=0;entryDx=0;entryDy=0;entryPerimeter=0;endFill=1;strokeWidth=2;strokeColor=#000000;" parent="1" source="Czi3FkVOIS_JeKucCBtk-94" target="Czi3FkVOIS_JeKucCBtk-95" edge="1">
            <mxGeometry relative="1" as="geometry">
              <mxPoint x="-1" y="-1" as="offset" />
              <Array as="points" />
            </mxGeometry>
          </mxCell>
        </object>
        <object label="2" id="jm9SPHePHSSqHUqD5Rmr-7">
          <ag_attributes />
          <ag_computed_attributes />
          <mxCell style="edgeStyle=none;rounded=0;orthogonalLoop=1;jettySize=auto;endFill=1;startSize=6;endSize=6;strokeWidth=2;verticalAlign=top;spacingRight=0;fontSize=15;strokeColor=#000000;" parent="1" source="Czi3FkVOIS_JeKucCBtk-102" target="Czi3FkVOIS_JeKucCBtk-9" edge="1">
            <mxGeometry relative="1" as="geometry" />
          </mxCell>
        </object>
        <object label="3" id="jm9SPHePHSSqHUqD5Rmr-8">
          <ag_attributes />
          <ag_computed_attributes />
          <mxCell style="edgeStyle=none;rounded=0;orthogonalLoop=1;jettySize=auto;endFill=1;startSize=6;endSize=6;strokeWidth=2;verticalAlign=top;spacingRight=0;fontSize=15;strokeColor=#000000;" parent="1" source="Czi3FkVOIS_JeKucCBtk-102" target="Czi3FkVOIS_JeKucCBtk-8" edge="1">
            <mxGeometry relative="1" as="geometry" />
          </mxCell>
        </object>
        <object label="Verletzung der Privatsphäre" id="Czi3FkVOIS_JeKucCBtk-102">
          <ag_attributes _risk="L" _marking="Czi3FkVOIS_JeKucCBtk-9;Czi3FkVOIS_JeKucCBtk-8" _weight="Czi3FkVOIS_JeKucCBtk-9:2;Czi3FkVOIS_JeKucCBtk-8:3" />
          <ag_computed_attributes fillColor="#40ff00" fontColor="#000000" value="L" />
          <ag_computed_attributes_function_reference ag_computed_attributes_function_reference="6c831697g9i0a" />
          <ag_aggregation_function_reference ag_aggregation_function_reference="egf49jfgj408" />
          <mxCell style="verticalAlign=top;align=center;fillColor=#FFFFFF;gradientColor=none;labelBackgroundColor=none;rounded=1;whiteSpace=wrap;shape=attackgraphs.node;spacingRight=20;" parent="1" vertex="1">
            <mxGeometry x="2790.5" y="80" width="180" height="48" as="geometry" />
          </mxCell>
        </object>
        <object label="Manipulation des Datenbestandes" Resources="" Knowledge="" Location="" id="Czi3FkVOIS_JeKucCBtk-105">
          <ag_attributes label="NaN" Resources="4" Knowledge="5" Location="0" _marking="Czi3FkVOIS_JeKucCBtk-122" />
          <ag_computed_attributes fillColor="#40ff00" fontColor="#000000" value="1" />
          <ag_computed_attributes_function_reference ag_computed_attributes_function_reference="dbg60ff69g9a" />
          <ag_aggregation_function_reference ag_aggregation_function_reference="6b1d22791hih8" />
          <mxCell style="verticalAlign=top;align=center;fillColor=#FFFFFF;gradientColor=none;labelBackgroundColor=none;rounded=0;whiteSpace=wrap;shape=attackgraphs.node;spacingRight=20;" parent="1" vertex="1">
            <mxGeometry x="1001" y="480" width="224" height="60" as="geometry" />
          </mxCell>
        </object>
        <object label="Manipulation der Übertragung" Resources="" Knowledge="" Location="" id="Czi3FkVOIS_JeKucCBtk-106">
          <ag_attributes label="NaN" Resources="5" Knowledge="5" Location="1" _marking="Czi3FkVOIS_JeKucCBtk-114" />
          <ag_computed_attributes fillColor="#40ff00" fontColor="#000000" value="1" />
          <ag_computed_attributes_function_reference ag_computed_attributes_function_reference="dbg60ff69g9a" />
          <ag_aggregation_function_reference ag_aggregation_function_reference="6b1d22791hih8" />
          <mxCell style="verticalAlign=top;align=center;gradientColor=none;labelBackgroundColor=none;rounded=0;whiteSpace=wrap;fillColor=#FFFFFF;shape=attackgraphs.node;spacingRight=20;" parent="1" vertex="1">
            <mxGeometry x="640" y="480" width="224" height="60" as="geometry" />
          </mxCell>
        </object>
        <object id="Czi3FkVOIS_JeKucCBtk-107">
          <ag_attributes />
          <ag_computed_attributes />
          <mxCell style="edgeStyle=none;startArrow=none;endArrow=classic;startSize=6;endSize=6;spacingTop=0;spacingBottom=0;spacingLeft=0;spacingRight=20;verticalAlign=top;labelBackgroundColor=#ffffff;rounded=0;endFill=1;strokeWidth=2;strokeColor=#000000;" parent="1" source="Czi3FkVOIS_JeKucCBtk-7" target="Czi3FkVOIS_JeKucCBtk-105" edge="1">
            <mxGeometry relative="1" as="geometry">
              <mxPoint y="-1" as="offset" />
              <Array as="points" />
              <mxPoint x="1094" y="385" as="sourcePoint" />
            </mxGeometry>
          </mxCell>
        </object>
        <object id="Czi3FkVOIS_JeKucCBtk-108">
          <ag_attributes />
          <ag_computed_attributes />
          <mxCell style="edgeStyle=none;startArrow=none;endArrow=classic;startSize=6;endSize=6;spacingTop=0;spacingBottom=0;spacingLeft=0;spacingRight=20;verticalAlign=top;labelBackgroundColor=#ffffff;rounded=0;endFill=1;strokeWidth=2;strokeColor=#000000;" parent="1" source="Czi3FkVOIS_JeKucCBtk-7" target="Czi3FkVOIS_JeKucCBtk-106" edge="1">
            <mxGeometry relative="1" as="geometry">
              <mxPoint as="offset" />
              <Array as="points" />
              <mxPoint x="1238" y="385" as="sourcePoint" />
            </mxGeometry>
          </mxCell>
        </object>
        <object id="6k28bXPKPwUyEk45xCLn-11">
          <ag_attributes />
          <ag_computed_attributes />
          <mxCell style="edgeStyle=none;orthogonalLoop=1;jettySize=auto;html=1;strokeWidth=2;startArrow=diamondThin;startFill=1;endArrow=none;endFill=0;verticalAlign=top;spacingRight=20;strokeColor=#000000;curved=1;" parent="1" source="Czi3FkVOIS_JeKucCBtk-111" target="6k28bXPKPwUyEk45xCLn-9" edge="1">
            <mxGeometry relative="1" as="geometry">
              <Array as="points">
                <mxPoint x="1270" y="790" />
              </Array>
            </mxGeometry>
          </mxCell>
        </object>
        <object label="Malware einschleusen" Resources="3" Knowledge="3" Location="0" id="Czi3FkVOIS_JeKucCBtk-111">
          <ag_attributes label="NaN" Resources="5" Knowledge="5" Location="0" />
          <ag_computed_attributes fillColor="#40ff00" fontColor="#000000" value="1" />
          <ag_computed_attributes_function_reference ag_computed_attributes_function_reference="dbg60ff69g9a" />
          <ag_aggregation_function_reference ag_aggregation_function_reference="73f575i0ghij5" />
          <mxCell style="verticalAlign=top;align=center;fillColor=#d7e3bf;gradientColor=none;labelBackgroundColor=none;rounded=0;whiteSpace=wrap;shape=attackgraphs.node;spacingRight=20;" parent="1" vertex="1">
            <mxGeometry x="1110" y="640" width="150" height="75" as="geometry" />
          </mxCell>
        </object>
        <object label="" id="Czi3FkVOIS_JeKucCBtk-112">
          <ag_attributes />
          <ag_computed_attributes />
          <mxCell style="edgeStyle=none;startArrow=none;endArrow=classic;startSize=6;endSize=6;spacingTop=0;spacingBottom=0;spacingLeft=0;spacingRight=20;verticalAlign=top;labelBackgroundColor=#ffffff;rounded=0;align=center;endFill=1;strokeWidth=2;strokeColor=#000000;" parent="1" source="Czi3FkVOIS_JeKucCBtk-105" target="Czi3FkVOIS_JeKucCBtk-111" edge="1">
            <mxGeometry relative="1" as="geometry">
              <mxPoint x="-1" as="offset" />
              <Array as="points" />
              <mxPoint x="1423" y="677.4999999999998" as="sourcePoint" />
              <mxPoint x="1451" y="720" as="targetPoint" />
            </mxGeometry>
          </mxCell>
        </object>
        <object id="6k28bXPKPwUyEk45xCLn-41">
          <ag_attributes />
          <ag_computed_attributes />
          <mxCell style="edgeStyle=none;rounded=0;orthogonalLoop=1;jettySize=auto;html=1;strokeWidth=2;startArrow=diamondThin;startFill=1;endArrow=none;endFill=0;strokeColor=#000000;" parent="1" source="Czi3FkVOIS_JeKucCBtk-114" target="6k28bXPKPwUyEk45xCLn-2" edge="1">
            <mxGeometry relative="1" as="geometry" />
          </mxCell>
        </object>
        <object id="6k28bXPKPwUyEk45xCLn-42">
          <ag_attributes />
          <ag_computed_attributes />
          <mxCell style="edgeStyle=none;rounded=0;orthogonalLoop=1;jettySize=auto;html=1;strokeWidth=2;startArrow=diamondThin;startFill=1;endArrow=none;endFill=0;strokeColor=#000000;" parent="1" source="Czi3FkVOIS_JeKucCBtk-114" target="6k28bXPKPwUyEk45xCLn-1" edge="1">
            <mxGeometry relative="1" as="geometry" />
          </mxCell>
        </object>
        <object id="DnPNwphCSTHKcsrJFPOQ-8">
          <ag_attributes />
          <ag_computed_attributes />
          <mxCell style="edgeStyle=none;shape=connector;orthogonalLoop=1;jettySize=auto;html=1;labelBackgroundColor=default;strokeColor=#000000;strokeWidth=2;fontFamily=Helvetica;fontSize=11;fontColor=default;startArrow=diamondThin;startFill=1;endArrow=none;endFill=0;curved=1;" parent="1" source="Czi3FkVOIS_JeKucCBtk-114" target="DnPNwphCSTHKcsrJFPOQ-3" edge="1">
            <mxGeometry relative="1" as="geometry">
              <Array as="points">
                <mxPoint x="810" y="820" />
              </Array>
            </mxGeometry>
          </mxCell>
        </object>
        <object label="FRMCS Kommunikation manipulieren" Resources="3" Knowledge="3" Location="0" id="Czi3FkVOIS_JeKucCBtk-114">
          <ag_computed_attributes_function_reference ag_computed_attributes_function_reference="dbg60ff69g9a" />
          <ag_attributes label="NaN" Resources="5" Knowledge="5" Location="1" />
          <ag_computed_attributes fillColor="#40ff00" fontColor="#000000" value="1" />
          <ag_aggregation_function_reference ag_aggregation_function_reference="73f575i0ghij5" />
          <mxCell style="verticalAlign=top;align=center;fillColor=#fee599;gradientColor=none;labelBackgroundColor=none;rounded=0;whiteSpace=wrap;shape=attackgraphs.node;spacingRight=20;" parent="1" vertex="1">
            <mxGeometry x="601" y="640" width="150" height="75" as="geometry" />
          </mxCell>
        </object>
        <object id="6k28bXPKPwUyEk45xCLn-39">
          <ag_attributes />
          <ag_computed_attributes />
          <mxCell style="edgeStyle=none;rounded=0;orthogonalLoop=1;jettySize=auto;html=1;strokeWidth=2;startArrow=diamondThin;startFill=1;endArrow=none;endFill=0;strokeColor=#000000;" parent="1" source="Czi3FkVOIS_JeKucCBtk-115" target="6k28bXPKPwUyEk45xCLn-1" edge="1">
            <mxGeometry relative="1" as="geometry" />
          </mxCell>
        </object>
        <object id="6k28bXPKPwUyEk45xCLn-40">
          <ag_attributes />
          <ag_computed_attributes />
          <mxCell style="edgeStyle=none;rounded=0;orthogonalLoop=1;jettySize=auto;html=1;strokeWidth=2;startArrow=diamondThin;startFill=1;endArrow=none;endFill=0;strokeColor=#000000;" parent="1" source="Czi3FkVOIS_JeKucCBtk-115" target="6k28bXPKPwUyEk45xCLn-2" edge="1">
            <mxGeometry relative="1" as="geometry" />
          </mxCell>
        </object>
        <object id="DnPNwphCSTHKcsrJFPOQ-7">
          <ag_attributes />
          <ag_computed_attributes />
          <mxCell style="edgeStyle=none;shape=connector;rounded=0;orthogonalLoop=1;jettySize=auto;html=1;labelBackgroundColor=default;strokeColor=#000000;strokeWidth=2;fontFamily=Helvetica;fontSize=11;fontColor=default;startArrow=diamondThin;startFill=1;endArrow=none;endFill=0;" parent="1" source="Czi3FkVOIS_JeKucCBtk-115" target="DnPNwphCSTHKcsrJFPOQ-3" edge="1">
            <mxGeometry relative="1" as="geometry" />
          </mxCell>
        </object>
        <object label="Drahtlose Nahfeld-Kommunikation manipulieren" Resources="2" Knowledge="3" Location="0" id="Czi3FkVOIS_JeKucCBtk-115">
          <ag_computed_attributes_function_reference ag_computed_attributes_function_reference="dbg60ff69g9a" />
          <ag_attributes label="NaN" Resources="5" Knowledge="5" Location="1" />
          <ag_computed_attributes fillColor="#40ff00" fontColor="#000000" value="1" />
          <ag_aggregation_function_reference ag_aggregation_function_reference="73f575i0ghij5" />
          <mxCell style="verticalAlign=top;align=center;fillColor=#fee599;gradientColor=none;labelBackgroundColor=none;rounded=0;whiteSpace=wrap;shape=attackgraphs.node;spacingRight=20;" parent="1" vertex="1">
            <mxGeometry x="761" y="640" width="150" height="75" as="geometry" />
          </mxCell>
        </object>
        <object id="Czi3FkVOIS_JeKucCBtk-116">
          <ag_attributes />
          <ag_computed_attributes />
          <mxCell style="edgeStyle=none;startArrow=none;endArrow=classic;startSize=6;endSize=6;spacingTop=0;spacingBottom=0;spacingLeft=0;spacingRight=20;verticalAlign=top;labelBackgroundColor=#ffffff;rounded=0;endFill=1;strokeWidth=2;strokeColor=#000000;" parent="1" source="Czi3FkVOIS_JeKucCBtk-106" target="Czi3FkVOIS_JeKucCBtk-114" edge="1">
            <mxGeometry relative="1" as="geometry">
              <mxPoint as="offset" />
              <Array as="points" />
              <mxPoint x="1087.0242857142855" y="538" as="sourcePoint" />
              <mxPoint x="950.9957142857143" y="630" as="targetPoint" />
            </mxGeometry>
          </mxCell>
        </object>
        <object id="Czi3FkVOIS_JeKucCBtk-117">
          <ag_attributes />
          <ag_computed_attributes />
          <mxCell style="edgeStyle=none;startArrow=none;endArrow=classic;startSize=6;endSize=6;spacingTop=0;spacingBottom=0;spacingLeft=0;spacingRight=20;verticalAlign=top;labelBackgroundColor=#ffffff;rounded=0;endFill=1;strokeWidth=2;strokeColor=#000000;" parent="1" source="Czi3FkVOIS_JeKucCBtk-106" target="Czi3FkVOIS_JeKucCBtk-115" edge="1">
            <mxGeometry relative="1" as="geometry">
              <mxPoint as="offset" />
              <Array as="points" />
              <mxPoint x="1107.101045296167" y="548.0000000000001" as="sourcePoint" />
              <mxPoint x="1028.7491289198604" y="647.5" as="targetPoint" />
            </mxGeometry>
          </mxCell>
        </object>
        <object id="6k28bXPKPwUyEk45xCLn-4">
          <ag_attributes />
          <ag_computed_attributes />
          <mxCell style="rounded=0;orthogonalLoop=1;jettySize=auto;html=1;strokeWidth=2;startArrow=diamondThin;startFill=1;endArrow=none;endFill=0;strokeColor=#000000;" parent="1" source="Czi3FkVOIS_JeKucCBtk-119" target="6k28bXPKPwUyEk45xCLn-35" edge="1">
            <mxGeometry relative="1" as="geometry" />
          </mxCell>
        </object>
        <object id="DnPNwphCSTHKcsrJFPOQ-2">
          <ag_attributes />
          <ag_computed_attributes />
          <mxCell style="rounded=0;orthogonalLoop=1;jettySize=auto;html=1;strokeWidth=2;strokeColor=#000000;endArrow=none;startArrow=diamondThin;startFill=1;endFill=0;" parent="1" source="Czi3FkVOIS_JeKucCBtk-119" target="DnPNwphCSTHKcsrJFPOQ-12" edge="1">
            <mxGeometry relative="1" as="geometry" />
          </mxCell>
        </object>
        <object label="GNSS&#xa;Spoofing" Resources="3" Knowledge="3" Location="1" id="Czi3FkVOIS_JeKucCBtk-119">
          <ag_computed_attributes_function_reference ag_computed_attributes_function_reference="dbg60ff69g9a" />
          <ag_attributes label="NaN" Resources="5" Knowledge="5" Location="1" />
          <ag_computed_attributes fillColor="#40ff00" fontColor="#000000" value="1" />
          <ag_aggregation_function_reference ag_aggregation_function_reference="73f575i0ghij5" />
          <mxCell style="verticalAlign=top;align=center;fillColor=#fee599;gradientColor=none;labelBackgroundColor=none;rounded=0;whiteSpace=wrap;shape=attackgraphs.node;spacingRight=20;" parent="1" vertex="1">
            <mxGeometry x="380" y="640" width="150" height="75" as="geometry" />
          </mxCell>
        </object>
        <object id="Czi3FkVOIS_JeKucCBtk-120">
          <ag_attributes />
          <ag_computed_attributes />
          <mxCell style="edgeStyle=none;startArrow=none;endArrow=classic;startSize=6;endSize=6;spacingTop=0;spacingBottom=0;spacingLeft=0;spacingRight=20;verticalAlign=top;labelBackgroundColor=#ffffff;rounded=0;endFill=1;strokeWidth=2;strokeColor=#000000;" parent="1" source="Czi3FkVOIS_JeKucCBtk-152" target="Czi3FkVOIS_JeKucCBtk-119" edge="1">
            <mxGeometry relative="1" as="geometry">
              <mxPoint as="offset" />
              <Array as="points" />
              <mxPoint x="801.1710452961672" y="545" as="sourcePoint" />
              <mxPoint x="722.8191289198605" y="644.5" as="targetPoint" />
            </mxGeometry>
          </mxCell>
        </object>
        <object id="Czi3FkVOIS_JeKucCBtk-121">
          <ag_attributes />
          <ag_computed_attributes />
          <mxCell style="edgeStyle=none;startArrow=none;endArrow=classic;startSize=6;endSize=6;spacingTop=0;spacingBottom=0;spacingLeft=0;spacingRight=20;verticalAlign=top;labelBackgroundColor=#ffffff;rounded=0;endFill=1;strokeWidth=2;strokeColor=#000000;" parent="1" source="Czi3FkVOIS_JeKucCBtk-7" target="Czi3FkVOIS_JeKucCBtk-152" edge="1">
            <mxGeometry relative="1" as="geometry">
              <mxPoint as="offset" />
              <Array as="points" />
              <mxPoint x="1297.514285714286" y="358" as="sourcePoint" />
              <mxPoint x="1161.4857142857145" y="450" as="targetPoint" />
            </mxGeometry>
          </mxCell>
        </object>
        <object id="6k28bXPKPwUyEk45xCLn-10">
          <ag_attributes />
          <ag_computed_attributes />
          <mxCell style="edgeStyle=none;orthogonalLoop=1;jettySize=auto;html=1;strokeWidth=2;startArrow=diamondThin;startFill=1;endArrow=none;endFill=0;verticalAlign=top;spacingRight=20;strokeColor=#000000;curved=1;" parent="1" source="Czi3FkVOIS_JeKucCBtk-122" target="6k28bXPKPwUyEk45xCLn-9" edge="1">
            <mxGeometry relative="1" as="geometry">
              <Array as="points">
                <mxPoint x="1150" y="790" />
              </Array>
            </mxGeometry>
          </mxCell>
        </object>
        <object label="Einfügen und Ausnutzen von Backdoors" Resources="2" Knowledge="2" Location="0" id="Czi3FkVOIS_JeKucCBtk-122">
          <ag_attributes label="NaN" Resources="4" Knowledge="5" Location="0" />
          <ag_computed_attributes fillColor="#40ff00" fontColor="#000000" value="1" />
          <ag_computed_attributes_function_reference ag_computed_attributes_function_reference="dbg60ff69g9a" />
          <ag_aggregation_function_reference ag_aggregation_function_reference="73f575i0ghij5" />
          <mxCell style="verticalAlign=top;align=center;fillColor=#d7e3bf;gradientColor=none;labelBackgroundColor=none;rounded=0;whiteSpace=wrap;shape=attackgraphs.node;spacingRight=20;" parent="1" vertex="1">
            <mxGeometry x="947" y="640" width="150" height="75" as="geometry" />
          </mxCell>
        </object>
        <object id="Czi3FkVOIS_JeKucCBtk-123">
          <ag_attributes />
          <ag_computed_attributes />
          <mxCell style="edgeStyle=none;startArrow=none;endArrow=classic;startSize=6;endSize=6;spacingTop=0;spacingBottom=0;spacingLeft=0;spacingRight=20;verticalAlign=top;labelBackgroundColor=#ffffff;rounded=0;endFill=1;strokeWidth=2;strokeColor=#000000;" parent="1" source="Czi3FkVOIS_JeKucCBtk-105" target="Czi3FkVOIS_JeKucCBtk-122" edge="1">
            <mxGeometry relative="1" as="geometry">
              <mxPoint as="offset" />
              <Array as="points" />
              <mxPoint x="998" y="542" as="sourcePoint" />
            </mxGeometry>
          </mxCell>
        </object>
        <object label="Manipulation der Sensoren" Resources="" Knowledge="" Location="" id="Czi3FkVOIS_JeKucCBtk-138">
          <ag_attributes label="NaN" Resources="4" Knowledge="5" Location="1" _marking="Czi3FkVOIS_JeKucCBtk-141" />
          <ag_computed_attributes fillColor="#40ff00" fontColor="#000000" value="1" />
          <ag_computed_attributes_function_reference ag_computed_attributes_function_reference="dbg60ff69g9a" />
          <ag_aggregation_function_reference ag_aggregation_function_reference="6b1d22791hih8" />
          <mxCell style="verticalAlign=top;align=center;gradientColor=none;labelBackgroundColor=none;rounded=0;whiteSpace=wrap;fillColor=#FFFFFF;shape=attackgraphs.node;spacingRight=20;" parent="1" vertex="1">
            <mxGeometry x="1400" y="480" width="224" height="60" as="geometry" />
          </mxCell>
        </object>
        <object id="6k28bXPKPwUyEk45xCLn-37">
          <ag_attributes />
          <ag_computed_attributes />
          <mxCell style="edgeStyle=none;rounded=0;orthogonalLoop=1;jettySize=auto;html=1;strokeWidth=2;startArrow=diamondThin;startFill=1;endArrow=none;endFill=0;strokeColor=#000000;" parent="1" source="Czi3FkVOIS_JeKucCBtk-139" target="6k28bXPKPwUyEk45xCLn-35" edge="1">
            <mxGeometry relative="1" as="geometry" />
          </mxCell>
        </object>
        <object id="DnPNwphCSTHKcsrJFPOQ-4">
          <ag_attributes />
          <ag_computed_attributes />
          <mxCell style="edgeStyle=none;rounded=0;orthogonalLoop=1;jettySize=auto;html=1;strokeWidth=2;strokeColor=#000000;endArrow=none;startArrow=diamondThin;startFill=1;endFill=0;" parent="1" source="Czi3FkVOIS_JeKucCBtk-139" target="DnPNwphCSTHKcsrJFPOQ-3" edge="1">
            <mxGeometry relative="1" as="geometry" />
          </mxCell>
        </object>
        <object label="Kameras manipulieren" Resources="3" Knowledge="2" Location="1" id="Czi3FkVOIS_JeKucCBtk-139">
          <ag_attributes label="NaN" Resources="5" Knowledge="5" Location="1" />
          <ag_computed_attributes fillColor="#40ff00" fontColor="#000000" value="1" />
          <ag_computed_attributes_function_reference ag_computed_attributes_function_reference="dbg60ff69g9a" />
          <ag_aggregation_function_reference ag_aggregation_function_reference="73f575i0ghij5" />
          <mxCell style="verticalAlign=top;align=center;gradientColor=none;labelBackgroundColor=none;rounded=0;whiteSpace=wrap;fillColor=#FEE599;shape=attackgraphs.node;spacingRight=20;" parent="1" vertex="1">
            <mxGeometry x="1300" y="640" width="150" height="75" as="geometry" />
          </mxCell>
        </object>
        <object id="6k28bXPKPwUyEk45xCLn-38">
          <ag_attributes />
          <ag_computed_attributes />
          <mxCell style="edgeStyle=none;rounded=0;orthogonalLoop=1;jettySize=auto;html=1;strokeWidth=2;startArrow=diamondThin;startFill=1;endArrow=none;endFill=0;strokeColor=#000000;" parent="1" source="Czi3FkVOIS_JeKucCBtk-141" target="6k28bXPKPwUyEk45xCLn-25" edge="1">
            <mxGeometry relative="1" as="geometry" />
          </mxCell>
        </object>
        <object label="GNSS&#xa;Jamming" Resources="2" Knowledge="2" Location="1" id="Czi3FkVOIS_JeKucCBtk-141">
          <ag_attributes label="NaN" Resources="4" Knowledge="5" Location="1" />
          <ag_computed_attributes fillColor="#40ff00" fontColor="#000000" value="1" />
          <ag_computed_attributes_function_reference ag_computed_attributes_function_reference="dbg60ff69g9a" />
          <ag_aggregation_function_reference ag_aggregation_function_reference="73f575i0ghij5" />
          <mxCell style="verticalAlign=top;align=center;fillColor=#fee599;gradientColor=none;labelBackgroundColor=none;rounded=0;whiteSpace=wrap;shape=attackgraphs.node;spacingRight=20;" parent="1" vertex="1">
            <mxGeometry x="1616" y="640" width="150" height="75" as="geometry" />
          </mxCell>
        </object>
        <object id="6k28bXPKPwUyEk45xCLn-36">
          <ag_attributes />
          <ag_computed_attributes />
          <mxCell style="edgeStyle=none;rounded=0;orthogonalLoop=1;jettySize=auto;html=1;strokeWidth=2;startArrow=diamondThin;startFill=1;endArrow=none;endFill=0;strokeColor=#000000;" parent="1" source="Czi3FkVOIS_JeKucCBtk-142" target="6k28bXPKPwUyEk45xCLn-35" edge="1">
            <mxGeometry relative="1" as="geometry" />
          </mxCell>
        </object>
        <object id="DnPNwphCSTHKcsrJFPOQ-6">
          <ag_attributes />
          <ag_computed_attributes />
          <mxCell style="edgeStyle=none;shape=connector;rounded=0;orthogonalLoop=1;jettySize=auto;html=1;labelBackgroundColor=default;strokeColor=#000000;strokeWidth=2;fontFamily=Helvetica;fontSize=11;fontColor=default;startArrow=diamondThin;startFill=1;endArrow=none;endFill=0;" parent="1" source="Czi3FkVOIS_JeKucCBtk-142" target="DnPNwphCSTHKcsrJFPOQ-3" edge="1">
            <mxGeometry relative="1" as="geometry" />
          </mxCell>
        </object>
        <object label="Fahrgastzählung&#xa;blockieren" Resources="2" Knowledge="2" Location="1" id="Czi3FkVOIS_JeKucCBtk-142">
          <ag_attributes label="NaN" Resources="5" Knowledge="5" Location="1" />
          <ag_computed_attributes fillColor="#40ff00" fontColor="#000000" value="1" />
          <ag_computed_attributes_function_reference ag_computed_attributes_function_reference="dbg60ff69g9a" />
          <ag_aggregation_function_reference ag_aggregation_function_reference="73f575i0ghij5" />
          <mxCell style="verticalAlign=top;align=center;fillColor=#d7e3bf;gradientColor=none;labelBackgroundColor=none;rounded=0;whiteSpace=wrap;shape=attackgraphs.node;spacingRight=20;portConstraint=south;" parent="1" vertex="1">
            <mxGeometry x="1460" y="640" width="150" height="75" as="geometry" />
          </mxCell>
        </object>
        <object id="Czi3FkVOIS_JeKucCBtk-143">
          <ag_attributes />
          <ag_computed_attributes />
          <mxCell style="edgeStyle=none;startArrow=none;endArrow=classic;startSize=6;endSize=6;spacingTop=0;spacingBottom=0;spacingLeft=0;spacingRight=20;verticalAlign=top;labelBackgroundColor=#ffffff;rounded=0;entryX=0.612;entryY=-0.034;entryDx=0;entryDy=0;entryPerimeter=0;endFill=1;strokeWidth=2;strokeColor=#000000;" parent="1" source="Czi3FkVOIS_JeKucCBtk-138" target="Czi3FkVOIS_JeKucCBtk-139" edge="1">
            <mxGeometry relative="1" as="geometry">
              <mxPoint x="-1" y="-1" as="offset" />
              <Array as="points" />
              <mxPoint x="1820" y="852" as="sourcePoint" />
            </mxGeometry>
          </mxCell>
        </object>
        <object id="Czi3FkVOIS_JeKucCBtk-147">
          <ag_attributes />
          <ag_computed_attributes />
          <mxCell style="edgeStyle=none;startArrow=none;endArrow=classic;startSize=6;endSize=6;spacingTop=0;spacingBottom=0;spacingLeft=0;spacingRight=20;verticalAlign=top;labelBackgroundColor=#ffffff;rounded=0;endFill=1;strokeWidth=2;strokeColor=#000000;" parent="1" source="Czi3FkVOIS_JeKucCBtk-138" target="Czi3FkVOIS_JeKucCBtk-141" edge="1">
            <mxGeometry relative="1" as="geometry">
              <mxPoint y="-1" as="offset" />
              <Array as="points" />
              <mxPoint x="1761" y="852" as="targetPoint" />
              <mxPoint x="1678" y="590" as="sourcePoint" />
            </mxGeometry>
          </mxCell>
        </object>
        <object id="Czi3FkVOIS_JeKucCBtk-149">
          <ag_attributes />
          <ag_computed_attributes />
          <mxCell style="edgeStyle=none;startArrow=none;endArrow=classic;startSize=6;endSize=6;spacingTop=0;spacingBottom=0;spacingLeft=0;spacingRight=20;verticalAlign=top;labelBackgroundColor=#ffffff;rounded=0;endFill=1;strokeWidth=2;strokeColor=#000000;" parent="1" source="Czi3FkVOIS_JeKucCBtk-138" target="Czi3FkVOIS_JeKucCBtk-142" edge="1">
            <mxGeometry relative="1" as="geometry">
              <mxPoint x="-1" y="-1" as="offset" />
              <Array as="points" />
              <mxPoint x="1560" y="650" as="targetPoint" />
            </mxGeometry>
          </mxCell>
        </object>
        <object label="Persönliche Endgeräte manipulieren" Resources="" Knowledge="" Location="" id="Czi3FkVOIS_JeKucCBtk-152">
          <ag_attributes label="NaN" Resources="5" Knowledge="5" Location="1" _marking="Czi3FkVOIS_JeKucCBtk-119" />
          <ag_computed_attributes fillColor="#40ff00" fontColor="#000000" value="1" />
          <ag_computed_attributes_function_reference ag_computed_attributes_function_reference="dbg60ff69g9a" />
          <ag_aggregation_function_reference ag_aggregation_function_reference="6b1d22791hih8" />
          <mxCell style="verticalAlign=top;align=center;fillColor=#FFFFFF;gradientColor=none;labelBackgroundColor=none;rounded=0;whiteSpace=wrap;shape=attackgraphs.node;spacingRight=20;" parent="1" vertex="1">
            <mxGeometry x="290.00000000000006" y="472.5" width="150" height="75" as="geometry" />
          </mxCell>
        </object>
        <object id="6k28bXPKPwUyEk45xCLn-6">
          <ag_attributes />
          <ag_computed_attributes />
          <mxCell style="edgeStyle=none;rounded=0;orthogonalLoop=1;jettySize=auto;html=1;strokeWidth=2;startArrow=diamondThin;startFill=1;endArrow=none;endFill=0;strokeColor=#000000;" parent="1" source="Czi3FkVOIS_JeKucCBtk-155" target="6k28bXPKPwUyEk45xCLn-1" edge="1">
            <mxGeometry relative="1" as="geometry" />
          </mxCell>
        </object>
        <object id="6k28bXPKPwUyEk45xCLn-8">
          <ag_attributes />
          <ag_computed_attributes />
          <mxCell style="edgeStyle=none;rounded=0;orthogonalLoop=1;jettySize=auto;html=1;strokeWidth=2;startArrow=diamondThin;startFill=1;endArrow=none;endFill=0;strokeColor=#000000;" parent="1" source="Czi3FkVOIS_JeKucCBtk-155" target="6k28bXPKPwUyEk45xCLn-7" edge="1">
            <mxGeometry relative="1" as="geometry" />
          </mxCell>
        </object>
        <object label="Ticket manipulieren" Resources="2" Knowledge="2" Location="0" id="Czi3FkVOIS_JeKucCBtk-155">
          <ag_computed_attributes_function_reference ag_computed_attributes_function_reference="dbg60ff69g9a" />
          <ag_attributes label="NaN" Resources="5" Knowledge="5" Location="1" />
          <ag_computed_attributes fillColor="#40ff00" fontColor="#000000" value="1" />
          <ag_aggregation_function_reference ag_aggregation_function_reference="73f575i0ghij5" />
          <mxCell style="verticalAlign=top;align=center;fillColor=#fee599;gradientColor=none;labelBackgroundColor=none;rounded=0;whiteSpace=wrap;shape=attackgraphs.node;spacingRight=20;" parent="1" vertex="1">
            <mxGeometry x="210" y="640" width="150" height="55" as="geometry" />
          </mxCell>
        </object>
        <object id="Czi3FkVOIS_JeKucCBtk-156">
          <ag_attributes />
          <ag_computed_attributes />
          <mxCell style="edgeStyle=none;startArrow=none;endArrow=classic;startSize=6;endSize=6;spacingTop=0;spacingBottom=0;spacingLeft=0;spacingRight=20;verticalAlign=top;labelBackgroundColor=#ffffff;rounded=0;endFill=1;strokeWidth=2;strokeColor=#000000;" parent="1" source="Czi3FkVOIS_JeKucCBtk-152" target="Czi3FkVOIS_JeKucCBtk-155" edge="1">
            <mxGeometry relative="1" as="geometry">
              <mxPoint y="-1" as="offset" />
              <Array as="points" />
              <mxPoint x="490.28" y="558" as="sourcePoint" />
              <mxPoint x="393.72" y="660" as="targetPoint" />
            </mxGeometry>
          </mxCell>
        </object>
        <object label="Angriffsziel&#xa;Kontaklose Fahrscheinkontrolle" id="Zq65Q2nqjFuZndYNnhfk-1">
          <ag_attributes />
          <ag_computed_attributes />
          <mxCell style="verticalAlign=middle;align=center;fillColor=#FFFFFF;gradientColor=none;labelBackgroundColor=none;rounded=0;whiteSpace=wrap;shape=trapezoid;size=0.07500000000000001;" parent="1" vertex="1">
            <mxGeometry x="1600" y="10" width="300" height="60" as="geometry" />
          </mxCell>
        </object>
        <object label="Die Berechnung von Korrelationen zu vorliegenden&lt;br&gt;Dateni st einfach, aber wie schwierig ist es,&lt;br&gt;die zu korrelierenden Datensätze zu beschaffen?&amp;nbsp;" id="mt6UKAE0NakhBXvdLM7W-1">
          <ag_attributes />
          <ag_computed_attributes />
          <mxCell style="text;html=1;resizable=0;autosize=1;align=center;verticalAlign=top;points=[];fillColor=none;strokeColor=none;rounded=0;spacingRight=20;" parent="1" vertex="1">
            <mxGeometry x="3020" y="540" width="310" height="50" as="geometry" />
          </mxCell>
        </object>
        <object label="Digitale Signatur" Resources="2" Knowledge="2" Location="1" id="6k28bXPKPwUyEk45xCLn-1">
          <ag_attributes />
          <ag_computed_attributes />
          <mxCell style="shape=attackgraphs.node;fillColor=#DAE8FC;verticalAlign=top;" parent="1" vertex="1">
            <mxGeometry x="420" y="840" width="150" height="90" as="geometry" />
          </mxCell>
        </object>
        <object label="Plausibilitätsprüfung&#xa;Security-Logging" Resources="3" Knowledge="2" Location="0" id="6k28bXPKPwUyEk45xCLn-2">
          <ag_attributes />
          <ag_computed_attributes />
          <mxCell style="shape=attackgraphs.node;fillColor=#DAE8FC;verticalAlign=top;" parent="1" vertex="1">
            <mxGeometry x="576" y="1000" width="214" height="75" as="geometry" />
          </mxCell>
        </object>
        <object label="" id="6k28bXPKPwUyEk45xCLn-3">
          <ag_attributes />
          <ag_computed_attributes />
          <mxCell style="endArrow=none;dashed=1;html=1;rounded=0;strokeWidth=1;fillColor=#dae8fc;strokeColor=#000000;" parent="1" edge="1">
            <mxGeometry width="50" height="50" relative="1" as="geometry">
              <mxPoint x="181" y="950" as="sourcePoint" />
              <mxPoint x="3341.4285714285716" y="950" as="targetPoint" />
            </mxGeometry>
          </mxCell>
        </object>
        <object label="Multi-Faktor-Authentifizierung&#xa;Code Signing" Resources="1" Knowledge="2" Location="0" id="6k28bXPKPwUyEk45xCLn-7">
          <ag_attributes />
          <ag_computed_attributes />
          <mxCell style="shape=attackgraphs.node;fillColor=#DAE8FC;verticalAlign=top;" parent="1" vertex="1">
            <mxGeometry x="190" y="840" width="160" height="90" as="geometry" />
          </mxCell>
        </object>
        <object label="Schutz vor Schadcode&#xa;Firewall&#xa;Schwachstellenscans&#xa;Penetrationstests&#xa;Mitarbeiterschulung&#xa;Backups" Resources="2" Knowledge="3" Location="0" id="6k28bXPKPwUyEk45xCLn-9">
          <ag_attributes />
          <ag_computed_attributes />
          <mxCell style="shape=attackgraphs.node;fillColor=#DAE8FC;align=left;verticalAlign=top;" parent="1" vertex="1">
            <mxGeometry x="1430" y="810" width="210" height="112.5" as="geometry" />
          </mxCell>
        </object>
        <object label="Privacy Enhancing Technologies" Resources="2" Knowledge="2" Location="0" id="6k28bXPKPwUyEk45xCLn-12">
          <ag_attributes />
          <ag_computed_attributes />
          <mxCell style="shape=attackgraphs.node;fillColor=#DAE8FC;verticalAlign=top;" parent="1" vertex="1">
            <mxGeometry x="3086" y="990" width="208" height="75" as="geometry" />
          </mxCell>
        </object>
        <object label="Zugriffsschutz&#xa;Sicherer Datenspeicher&#xa;Backups" Resources="2" Knowledge="2" Location="0" id="6k28bXPKPwUyEk45xCLn-14">
          <ag_attributes />
          <ag_computed_attributes />
          <mxCell style="shape=attackgraphs.node;fillColor=#DAE8FC;verticalAlign=top;" parent="1" vertex="1">
            <mxGeometry x="1940" y="840" width="150" height="90" as="geometry" />
          </mxCell>
        </object>
        <object label="Verschlüsselung" Resources="5" Knowledge="3" Location="0" id="6k28bXPKPwUyEk45xCLn-19">
          <ag_attributes />
          <ag_computed_attributes />
          <mxCell style="shape=attackgraphs.node;fillColor=#DAE8FC;verticalAlign=top;" parent="1" vertex="1">
            <mxGeometry x="2670" y="840" width="150" height="90" as="geometry" />
          </mxCell>
        </object>
        <object label="Resilienz" Resources="2" Knowledge="3" Location="0" id="6k28bXPKPwUyEk45xCLn-25">
          <ag_attributes />
          <ag_computed_attributes />
          <mxCell style="shape=attackgraphs.node;fillColor=#DAE8FC;verticalAlign=top;" parent="1" vertex="1">
            <mxGeometry x="1746" y="1000" width="150" height="75" as="geometry" />
          </mxCell>
        </object>
        <object label="Redundanz&#xa;Skalierbarkeit&#xa;Zugangsschutz&#xa;Zugriffsschutz" Resources="3" Knowledge="1" Location="0" id="6k28bXPKPwUyEk45xCLn-29">
          <ag_attributes />
          <ag_computed_attributes />
          <mxCell style="shape=attackgraphs.node;fillColor=#DAE8FC;align=left;verticalAlign=top;" parent="1" vertex="1">
            <mxGeometry x="2103" y="840" width="208" height="90" as="geometry" />
          </mxCell>
        </object>
        <object label="Integritätsschutz der Umwelterfassung&#xa;Plausibilitätsprüfung" Resources="2" Knowledge="2" Location="0" id="6k28bXPKPwUyEk45xCLn-35">
          <ag_attributes />
          <ag_computed_attributes />
          <mxCell style="shape=attackgraphs.node;fillColor=#DAE8FC;verticalAlign=top;" parent="1" vertex="1">
            <mxGeometry x="976" y="1000" width="210" height="75" as="geometry" />
          </mxCell>
        </object>
        <object label="Business Continuity Management" Impact="2" id="6k28bXPKPwUyEk45xCLn-43">
          <ag_attributes />
          <ag_computed_attributes />
          <mxCell style="shape=attackgraphs.node;fillColor=#DAE8FC;fontSize=12;align=left;verticalAlign=top;spacingLeft=2;whiteSpace=wrap;" parent="1" vertex="1">
            <mxGeometry x="1832" y="150" width="120" height="65" as="geometry" />
          </mxCell>
        </object>
        <object id="6k28bXPKPwUyEk45xCLn-44">
          <ag_attributes />
          <ag_computed_attributes />
          <mxCell style="edgeStyle=none;rounded=0;orthogonalLoop=1;jettySize=auto;html=1;strokeWidth=2;startArrow=diamondThin;startFill=1;endArrow=none;endFill=0;verticalAlign=top;spacingRight=20;strokeColor=#000000;" parent="1" source="6k28bXPKPwUyEk45xCLn-45" target="6k28bXPKPwUyEk45xCLn-43" edge="1">
            <mxGeometry relative="1" as="geometry" />
          </mxCell>
        </object>
        <object id="6k28bXPKPwUyEk45xCLn-46">
          <ag_attributes />
          <ag_computed_attributes />
          <mxCell style="edgeStyle=none;rounded=0;orthogonalLoop=1;jettySize=auto;html=1;strokeWidth=2;exitX=1;exitY=0.75;exitDx=0;exitDy=0;startArrow=none;startFill=0;endArrow=classic;endFill=1;verticalAlign=top;spacingRight=20;strokeColor=#000000;" parent="1" source="6k28bXPKPwUyEk45xCLn-45" target="Czi3FkVOIS_JeKucCBtk-16" edge="1">
            <mxGeometry relative="1" as="geometry" />
          </mxCell>
        </object>
        <object label="" id="6k28bXPKPwUyEk45xCLn-45">
          <ag_attributes _af="2" _marking="Czi3FkVOIS_JeKucCBtk-16" _impact="2" />
          <ag_computed_attributes />
          <ag_aggregation_function_reference ag_aggregation_function_reference="397423adceb0f" />
          <mxCell style="shape=attackgraphs.node;allowArrows=0;verticalAlign=top;spacingRight=0;fontSize=15;" parent="1" vertex="1">
            <mxGeometry x="1745" y="270" width="21" height="20" as="geometry" />
          </mxCell>
        </object>
        <object label="Datensparsamkeit" Resources="1" Knowledge="1" Location="0" id="hBg2pZH1YuUEVgYuRoB0-1">
          <ag_attributes />
          <ag_computed_attributes />
          <mxCell style="shape=attackgraphs.node;fillColor=#DAE8FC;verticalAlign=top;" parent="1" vertex="1">
            <mxGeometry x="2756" y="1000" width="150" height="75" as="geometry" />
          </mxCell>
        </object>
        <object id="hBg2pZH1YuUEVgYuRoB0-2">
          <ag_attributes />
          <ag_computed_attributes />
          <mxCell style="rounded=0;orthogonalLoop=1;jettySize=auto;html=1;strokeWidth=2;startArrow=none;startFill=0;endArrow=none;endFill=0;strokeColor=#000000;" parent="1" source="6k28bXPKPwUyEk45xCLn-9" target="hBg2pZH1YuUEVgYuRoB0-3" edge="1">
            <mxGeometry relative="1" as="geometry">
              <mxPoint x="1131.635922330097" y="925" as="sourcePoint" />
            </mxGeometry>
          </mxCell>
        </object>
        <object label="Reaktionsfähigkeit auf Sicherheitslücken" id="hBg2pZH1YuUEVgYuRoB0-3">
          <ag_attributes />
          <ag_computed_attributes />
          <mxCell style="shape=attackgraphs.node;fillColor=#DAE8FC;verticalAlign=top;" parent="1" vertex="1">
            <mxGeometry x="1426" y="990" width="230" height="75" as="geometry" />
          </mxCell>
        </object>
        <object label="Redundanz" Resources="1" Knowledge="1" Location="0" id="DnPNwphCSTHKcsrJFPOQ-3">
          <ag_attributes />
          <ag_computed_attributes />
          <mxCell style="shape=attackgraphs.node;fillColor=#DAE8FC;verticalAlign=top;" parent="1" vertex="1">
            <mxGeometry x="990" y="840" width="150" height="75" as="geometry" />
          </mxCell>
        </object>
        <object label="Gehärtetes Endgerät&#xa;Beschränkte Berechtigungen&#xa;Schutz vor Schadcode" Resources="2" Knowledge="2" Location="1" id="DnPNwphCSTHKcsrJFPOQ-9">
          <ag_attributes />
          <ag_computed_attributes />
          <mxCell style="shape=attackgraphs.node;fillColor=#DAE8FC;verticalAlign=top;" parent="1" vertex="1">
            <mxGeometry x="2916" y="847.5" width="170" height="75" as="geometry" />
          </mxCell>
        </object>
        <object label="Resilienz" Resources="2" Knowledge="3" Location="0" id="DnPNwphCSTHKcsrJFPOQ-12">
          <ag_attributes />
          <ag_computed_attributes />
          <mxCell style="shape=attackgraphs.node;fillColor=#DAE8FC;verticalAlign=top;" parent="1" vertex="1">
            <mxGeometry x="275" y="980" width="150" height="75" as="geometry" />
          </mxCell>
        </object>
      </root>
    </mxGraphModel>
  </diagram>
</mxfile>
